<mxfile host="app.diagrams.net" modified="2023-04-10T11:15:15.468Z" agent="Mozilla/5.0 (Windows NT 10.0; Win64; x64) AppleWebKit/537.36 (KHTML, like Gecko) Chrome/110.0.0.0 YaBrowser/23.3.1.806 Yowser/2.5 Safari/537.36" etag="UwIgFdE6gegGBZCDLQFM" version="21.1.5" type="device">
  <diagram id="lLeitfHyl6jHXRm8dpch" name="Страница 1">
    <mxGraphModel dx="5706" dy="2308" grid="1" gridSize="10" guides="1" tooltips="1" connect="1" arrows="1" fold="1" page="1" pageScale="1" pageWidth="850" pageHeight="1100" math="0" shadow="0">
      <root>
        <mxCell id="0" />
        <mxCell id="1" parent="0" />
        <mxCell id="4ki5c7JBk0iLa5YtxHzF-98" value="Интерактивные &#xa;графические системы" style="swimlane;fontStyle=1;childLayout=stackLayout;horizontal=1;startSize=190;horizontalStack=0;resizeParent=1;resizeParentMax=0;resizeLast=0;collapsible=1;marginBottom=0;align=left;fontSize=18;fillColor=#D1C4E9;strokeWidth=2;rounded=0;verticalAlign=middle;spacingLeft=40;whiteSpace=wrap;" vertex="1" collapsed="1" parent="1">
          <mxGeometry x="-450" y="797.5" width="260" height="190" as="geometry">
            <mxRectangle x="160" y="860" width="670" height="420" as="alternateBounds" />
          </mxGeometry>
        </mxCell>
        <mxCell id="4ki5c7JBk0iLa5YtxHzF-99" value="&lt;ol&gt;&lt;li&gt;&lt;span style=&quot;background-color: initial; font-family: Verdana; font-size: 16px;&quot;&gt;Архитектура графических рабочих станций.&amp;nbsp;&lt;/span&gt;&lt;/li&gt;&lt;li&gt;&lt;span style=&quot;background-color: initial; font-family: Verdana; font-size: 16px;&quot;&gt;3D графика и&amp;nbsp;&lt;/span&gt;&lt;span style=&quot;background-color: initial; font-family: Verdana; font-size: 16px;&quot;&gt;геометрические модели.&amp;nbsp;&lt;/span&gt;&lt;/li&gt;&lt;li&gt;&lt;span style=&quot;background-color: initial; font-family: Verdana; font-size: 16px;&quot;&gt;Представление пространственных форм.&amp;nbsp;&lt;/span&gt;&lt;/li&gt;&lt;li&gt;&lt;span style=&quot;background-color: initial; font-family: Verdana; font-size: 16px;&quot;&gt;Задача синтеза изображений.&lt;/span&gt;&lt;/li&gt;&lt;li&gt;&lt;span style=&quot;background-color: initial; font-family: Verdana; font-size: 16px;&quot;&gt;Построение реалистических изображений.&amp;nbsp;&lt;/span&gt;&lt;/li&gt;&lt;li&gt;&lt;span style=&quot;background-color: initial; font-family: Verdana; font-size: 16px;&quot;&gt;Современные графические стандарты 3D-графики.&lt;/span&gt;&lt;/li&gt;&lt;li&gt;&lt;span style=&quot;background-color: initial; font-family: Verdana; font-size: 16px;&quot;&gt;Графические диалоговые системы.&amp;nbsp;&lt;/span&gt;&lt;/li&gt;&lt;li&gt;&lt;span style=&quot;background-color: initial; font-family: Verdana; font-size: 16px;&quot;&gt;Прикладное использование интерактивных графических&amp;nbsp;&lt;/span&gt;&lt;span style=&quot;background-color: initial; font-family: Verdana; font-size: 16px;&quot;&gt;систем.&amp;nbsp;&lt;/span&gt;&lt;br&gt;&lt;/li&gt;&lt;/ol&gt;" style="text;strokeColor=default;fillColor=#A99FBD;spacingLeft=10;spacingRight=0;overflow=hidden;rotatable=0;points=[[0,0.5],[1,0.5]];portConstraint=eastwest;fontSize=14;whiteSpace=wrap;html=1;strokeWidth=2;verticalAlign=middle;spacing=2;fontStyle=1;align=left;horizontal=1;" vertex="1" parent="4ki5c7JBk0iLa5YtxHzF-98">
          <mxGeometry y="190" width="670" height="230" as="geometry" />
        </mxCell>
        <mxCell id="4ki5c7JBk0iLa5YtxHzF-101" value=" Литература:" style="swimlane;fontStyle=1;childLayout=stackLayout;horizontal=1;startSize=26;horizontalStack=0;resizeParent=1;resizeParentMax=0;resizeLast=0;collapsible=1;marginBottom=0;align=center;fontSize=18;strokeWidth=2;rounded=0;verticalAlign=middle;spacingLeft=10;whiteSpace=wrap;fillColor=#000000;strokeColor=default;fontColor=#FFFFFF;" vertex="1" collapsed="1" parent="1">
          <mxGeometry x="-590" y="797.5" width="140" height="25" as="geometry">
            <mxRectangle x="20" y="360" width="140" height="186" as="alternateBounds" />
          </mxGeometry>
        </mxCell>
        <mxCell id="4ki5c7JBk0iLa5YtxHzF-102" value="1. Учебник" style="text;strokeColor=default;fillColor=#393E46;spacingLeft=10;spacingRight=0;overflow=hidden;rotatable=0;points=[[0,0.5],[1,0.5]];portConstraint=eastwest;fontSize=14;whiteSpace=wrap;html=1;strokeWidth=2;verticalAlign=middle;spacing=2;fontStyle=0;align=left;horizontal=1;fontColor=#FFFFFF;" vertex="1" parent="4ki5c7JBk0iLa5YtxHzF-101">
          <mxGeometry y="26" width="140" height="40" as="geometry" />
        </mxCell>
        <mxCell id="4ki5c7JBk0iLa5YtxHzF-103" value="2. Учебник" style="text;strokeColor=default;fillColor=#393E46;spacingLeft=10;spacingRight=0;overflow=hidden;rotatable=0;points=[[0,0.5],[1,0.5]];portConstraint=eastwest;fontSize=14;whiteSpace=wrap;html=1;strokeWidth=2;verticalAlign=middle;spacing=2;fontStyle=0;align=left;horizontal=1;fontColor=#FFFFFF;" vertex="1" parent="4ki5c7JBk0iLa5YtxHzF-101">
          <mxGeometry y="66" width="140" height="40" as="geometry" />
        </mxCell>
        <mxCell id="4ki5c7JBk0iLa5YtxHzF-104" value="3. Учебник" style="text;strokeColor=default;fillColor=#393E46;spacingLeft=10;spacingRight=0;overflow=hidden;rotatable=0;points=[[0,0.5],[1,0.5]];portConstraint=eastwest;fontSize=14;whiteSpace=wrap;html=1;strokeWidth=2;verticalAlign=middle;spacing=2;fontStyle=0;align=left;horizontal=1;fontColor=#FFFFFF;" vertex="1" parent="4ki5c7JBk0iLa5YtxHzF-101">
          <mxGeometry y="106" width="140" height="40" as="geometry" />
        </mxCell>
        <mxCell id="4ki5c7JBk0iLa5YtxHzF-105" value="4. Учебник" style="text;strokeColor=default;fillColor=#393E46;spacingLeft=10;spacingRight=0;overflow=hidden;rotatable=0;points=[[0,0.5],[1,0.5]];portConstraint=eastwest;fontSize=14;whiteSpace=wrap;html=1;strokeWidth=2;verticalAlign=middle;spacing=2;fontStyle=0;align=left;horizontal=1;fontColor=#FFFFFF;" vertex="1" parent="4ki5c7JBk0iLa5YtxHzF-101">
          <mxGeometry y="146" width="140" height="40" as="geometry" />
        </mxCell>
        <mxCell id="4ki5c7JBk0iLa5YtxHzF-133" value="Системы машинной &#xa;графики" style="swimlane;fontStyle=1;childLayout=stackLayout;horizontal=1;startSize=190;horizontalStack=0;resizeParent=1;resizeParentMax=0;resizeLast=0;collapsible=1;marginBottom=0;align=left;fontSize=18;fillColor=#D1C4E9;strokeWidth=2;rounded=0;verticalAlign=middle;spacingLeft=40;whiteSpace=wrap;" vertex="1" collapsed="1" parent="1">
          <mxGeometry x="10" y="797.5" width="260" height="190" as="geometry">
            <mxRectangle x="620" y="860" width="580" height="430" as="alternateBounds" />
          </mxGeometry>
        </mxCell>
        <mxCell id="4ki5c7JBk0iLa5YtxHzF-134" value="&lt;ol&gt;&lt;li&gt;&lt;span style=&quot;font-family: Verdana; font-size: 16px; background-color: initial;&quot;&gt;Архитектура графических рабочих станций.&amp;nbsp;&lt;/span&gt;&lt;/li&gt;&lt;li&gt;&lt;span style=&quot;font-family: Verdana; font-size: 16px; background-color: initial;&quot;&gt;Машинная графика и&amp;nbsp;&lt;/span&gt;&lt;span style=&quot;background-color: initial; font-family: Verdana; font-size: 16px;&quot;&gt;геометрические модели.&amp;nbsp;&lt;/span&gt;&lt;/li&gt;&lt;li&gt;&lt;span style=&quot;background-color: initial; font-family: Verdana; font-size: 16px;&quot;&gt;Представление пространственных объектов.&amp;nbsp;&lt;/span&gt;&lt;/li&gt;&lt;li&gt;&lt;span style=&quot;background-color: initial; font-family: Verdana; font-size: 16px;&quot;&gt;Задача синтеза&amp;nbsp;&lt;/span&gt;&lt;span style=&quot;background-color: initial; font-family: Verdana; font-size: 16px;&quot;&gt;изображений.&amp;nbsp;&lt;/span&gt;&lt;/li&gt;&lt;li&gt;&lt;span style=&quot;background-color: initial; font-family: Verdana; font-size: 16px;&quot;&gt;Построение реалистических изображений.&amp;nbsp;&lt;/span&gt;&lt;/li&gt;&lt;li&gt;&lt;span style=&quot;background-color: initial; font-family: Verdana; font-size: 16px;&quot;&gt;Современные стандарты машинной&amp;nbsp;&lt;/span&gt;&lt;span style=&quot;background-color: initial; font-family: Verdana; font-size: 16px;&quot;&gt;графики.&amp;nbsp;&lt;/span&gt;&lt;/li&gt;&lt;li&gt;&lt;span style=&quot;background-color: initial; font-family: Verdana; font-size: 16px;&quot;&gt;Построение интерфейсов и диалоговые системы.&amp;nbsp;&lt;/span&gt;&lt;/li&gt;&lt;li&gt;&lt;span style=&quot;background-color: initial; font-family: Verdana; font-size: 16px;&quot;&gt;Прикладное использование систем&amp;nbsp;&lt;/span&gt;&lt;span style=&quot;background-color: initial; font-family: Verdana; font-size: 16px;&quot;&gt;машинной графики.&lt;/span&gt;&lt;/li&gt;&lt;/ol&gt;" style="text;strokeColor=default;fillColor=#A99FBD;spacingLeft=10;spacingRight=0;overflow=hidden;rotatable=0;points=[[0,0.5],[1,0.5]];portConstraint=eastwest;fontSize=14;whiteSpace=wrap;html=1;strokeWidth=2;verticalAlign=middle;spacing=2;fontStyle=1;align=left;horizontal=1;" vertex="1" parent="4ki5c7JBk0iLa5YtxHzF-133">
          <mxGeometry y="190" width="580" height="240" as="geometry" />
        </mxCell>
        <mxCell id="4ki5c7JBk0iLa5YtxHzF-135" value=" Литература:" style="swimlane;fontStyle=1;childLayout=stackLayout;horizontal=1;startSize=26;horizontalStack=0;resizeParent=1;resizeParentMax=0;resizeLast=0;collapsible=1;marginBottom=0;align=center;fontSize=18;strokeWidth=2;rounded=0;verticalAlign=middle;spacingLeft=10;whiteSpace=wrap;fillColor=#000000;strokeColor=default;fontColor=#FFFFFF;" vertex="1" collapsed="1" parent="1">
          <mxGeometry x="-130" y="797.5" width="140" height="25" as="geometry">
            <mxRectangle x="480" y="860" width="140" height="186" as="alternateBounds" />
          </mxGeometry>
        </mxCell>
        <mxCell id="4ki5c7JBk0iLa5YtxHzF-136" value="1. Учебник" style="text;strokeColor=default;fillColor=#393E46;spacingLeft=10;spacingRight=0;overflow=hidden;rotatable=0;points=[[0,0.5],[1,0.5]];portConstraint=eastwest;fontSize=14;whiteSpace=wrap;html=1;strokeWidth=2;verticalAlign=middle;spacing=2;fontStyle=0;align=left;horizontal=1;fontColor=#FFFFFF;" vertex="1" parent="4ki5c7JBk0iLa5YtxHzF-135">
          <mxGeometry y="26" width="140" height="40" as="geometry" />
        </mxCell>
        <mxCell id="4ki5c7JBk0iLa5YtxHzF-137" value="2. Учебник" style="text;strokeColor=default;fillColor=#393E46;spacingLeft=10;spacingRight=0;overflow=hidden;rotatable=0;points=[[0,0.5],[1,0.5]];portConstraint=eastwest;fontSize=14;whiteSpace=wrap;html=1;strokeWidth=2;verticalAlign=middle;spacing=2;fontStyle=0;align=left;horizontal=1;fontColor=#FFFFFF;" vertex="1" parent="4ki5c7JBk0iLa5YtxHzF-135">
          <mxGeometry y="66" width="140" height="40" as="geometry" />
        </mxCell>
        <mxCell id="4ki5c7JBk0iLa5YtxHzF-138" value="3. Учебник" style="text;strokeColor=default;fillColor=#393E46;spacingLeft=10;spacingRight=0;overflow=hidden;rotatable=0;points=[[0,0.5],[1,0.5]];portConstraint=eastwest;fontSize=14;whiteSpace=wrap;html=1;strokeWidth=2;verticalAlign=middle;spacing=2;fontStyle=0;align=left;horizontal=1;fontColor=#FFFFFF;" vertex="1" parent="4ki5c7JBk0iLa5YtxHzF-135">
          <mxGeometry y="106" width="140" height="40" as="geometry" />
        </mxCell>
        <mxCell id="4ki5c7JBk0iLa5YtxHzF-139" value="4. Учебник" style="text;strokeColor=default;fillColor=#393E46;spacingLeft=10;spacingRight=0;overflow=hidden;rotatable=0;points=[[0,0.5],[1,0.5]];portConstraint=eastwest;fontSize=14;whiteSpace=wrap;html=1;strokeWidth=2;verticalAlign=middle;spacing=2;fontStyle=0;align=left;horizontal=1;fontColor=#FFFFFF;" vertex="1" parent="4ki5c7JBk0iLa5YtxHzF-135">
          <mxGeometry y="146" width="140" height="40" as="geometry" />
        </mxCell>
        <mxCell id="4ki5c7JBk0iLa5YtxHzF-140" value="Администрирование &#xa;вычислительных сетей" style="swimlane;fontStyle=1;childLayout=stackLayout;horizontal=1;startSize=70;horizontalStack=0;resizeParent=1;resizeParentMax=0;resizeLast=0;collapsible=1;marginBottom=0;align=left;fontSize=18;fillColor=#FFE0B2;strokeWidth=2;rounded=0;verticalAlign=middle;spacingLeft=30;whiteSpace=wrap;" vertex="1" collapsed="1" parent="1">
          <mxGeometry x="470" y="917.5" width="260" height="70" as="geometry">
            <mxRectangle x="1080" y="980" width="430" height="150" as="alternateBounds" />
          </mxGeometry>
        </mxCell>
        <mxCell id="4ki5c7JBk0iLa5YtxHzF-141" value="&lt;ol&gt;&lt;li&gt;&lt;span style=&quot;background-color: initial;&quot;&gt;Основные понятия и определения.&amp;nbsp;&lt;/span&gt;&lt;/li&gt;&lt;li&gt;&lt;span style=&quot;background-color: initial;&quot;&gt;Динамические VLAN, IEEE&amp;nbsp;&lt;/span&gt;802.1x, агрегация каналов, q-in-q 802.1ad, LLDP, SNMP, тунелирование.&lt;/li&gt;&lt;/ol&gt;" style="text;strokeColor=default;fillColor=#C7AF8B;spacingLeft=10;spacingRight=0;overflow=hidden;rotatable=0;points=[[0,0.5],[1,0.5]];portConstraint=eastwest;fontSize=14;whiteSpace=wrap;html=1;strokeWidth=2;verticalAlign=middle;spacing=2;fontStyle=1;align=left;horizontal=1;" vertex="1" parent="4ki5c7JBk0iLa5YtxHzF-140">
          <mxGeometry y="70" width="430" height="80" as="geometry" />
        </mxCell>
        <mxCell id="4ki5c7JBk0iLa5YtxHzF-142" value=" Литература:" style="swimlane;fontStyle=1;childLayout=stackLayout;horizontal=1;startSize=26;horizontalStack=0;resizeParent=1;resizeParentMax=0;resizeLast=0;collapsible=1;marginBottom=0;align=center;fontSize=18;strokeWidth=2;rounded=0;verticalAlign=middle;spacingLeft=10;whiteSpace=wrap;fillColor=#000000;strokeColor=default;fontColor=#FFFFFF;" vertex="1" collapsed="1" parent="1">
          <mxGeometry x="330" y="917.5" width="140" height="25" as="geometry">
            <mxRectangle x="20" y="360" width="140" height="186" as="alternateBounds" />
          </mxGeometry>
        </mxCell>
        <mxCell id="4ki5c7JBk0iLa5YtxHzF-143" value="1. Учебник" style="text;strokeColor=default;fillColor=#393E46;spacingLeft=10;spacingRight=0;overflow=hidden;rotatable=0;points=[[0,0.5],[1,0.5]];portConstraint=eastwest;fontSize=14;whiteSpace=wrap;html=1;strokeWidth=2;verticalAlign=middle;spacing=2;fontStyle=0;align=left;horizontal=1;fontColor=#FFFFFF;" vertex="1" parent="4ki5c7JBk0iLa5YtxHzF-142">
          <mxGeometry y="26" width="140" height="40" as="geometry" />
        </mxCell>
        <mxCell id="4ki5c7JBk0iLa5YtxHzF-144" value="2. Учебник" style="text;strokeColor=default;fillColor=#393E46;spacingLeft=10;spacingRight=0;overflow=hidden;rotatable=0;points=[[0,0.5],[1,0.5]];portConstraint=eastwest;fontSize=14;whiteSpace=wrap;html=1;strokeWidth=2;verticalAlign=middle;spacing=2;fontStyle=0;align=left;horizontal=1;fontColor=#FFFFFF;" vertex="1" parent="4ki5c7JBk0iLa5YtxHzF-142">
          <mxGeometry y="66" width="140" height="40" as="geometry" />
        </mxCell>
        <mxCell id="4ki5c7JBk0iLa5YtxHzF-145" value="3. Учебник" style="text;strokeColor=default;fillColor=#393E46;spacingLeft=10;spacingRight=0;overflow=hidden;rotatable=0;points=[[0,0.5],[1,0.5]];portConstraint=eastwest;fontSize=14;whiteSpace=wrap;html=1;strokeWidth=2;verticalAlign=middle;spacing=2;fontStyle=0;align=left;horizontal=1;fontColor=#FFFFFF;" vertex="1" parent="4ki5c7JBk0iLa5YtxHzF-142">
          <mxGeometry y="106" width="140" height="40" as="geometry" />
        </mxCell>
        <mxCell id="4ki5c7JBk0iLa5YtxHzF-146" value="4. Учебник" style="text;strokeColor=default;fillColor=#393E46;spacingLeft=10;spacingRight=0;overflow=hidden;rotatable=0;points=[[0,0.5],[1,0.5]];portConstraint=eastwest;fontSize=14;whiteSpace=wrap;html=1;strokeWidth=2;verticalAlign=middle;spacing=2;fontStyle=0;align=left;horizontal=1;fontColor=#FFFFFF;" vertex="1" parent="4ki5c7JBk0iLa5YtxHzF-142">
          <mxGeometry y="146" width="140" height="40" as="geometry" />
        </mxCell>
        <mxCell id="4ki5c7JBk0iLa5YtxHzF-147" value="Технологии разработки &#xa;прогр. обеспечения" style="swimlane;fontStyle=1;childLayout=stackLayout;horizontal=1;startSize=190;horizontalStack=0;resizeParent=1;resizeParentMax=0;resizeLast=0;collapsible=1;marginBottom=0;align=left;fontSize=18;fillColor=#B2EBF2;strokeWidth=2;rounded=0;verticalAlign=middle;spacingLeft=30;whiteSpace=wrap;" vertex="1" collapsed="1" parent="1">
          <mxGeometry x="1390" y="797.5" width="260" height="190" as="geometry">
            <mxRectangle x="2000" y="860" width="760" height="650" as="alternateBounds" />
          </mxGeometry>
        </mxCell>
        <mxCell id="4ki5c7JBk0iLa5YtxHzF-148" value="&lt;ol style=&quot;font-size: 16px;&quot;&gt;&lt;li&gt;&lt;span style=&quot;background-color: initial;&quot;&gt;&lt;font style=&quot;font-size: 16px;&quot; face=&quot;Verdana&quot;&gt;Понятие программной инженерии.&amp;nbsp;&lt;/font&gt;&lt;/span&gt;&lt;/li&gt;&lt;li&gt;&lt;font style=&quot;font-size: 16px;&quot; face=&quot;Verdana&quot;&gt;&lt;span style=&quot;background-color: initial;&quot;&gt;Понятие программной&amp;nbsp;&lt;/span&gt;инженерии.&amp;nbsp;&lt;/font&gt;&lt;/li&gt;&lt;li&gt;&lt;font style=&quot;font-size: 16px;&quot; face=&quot;Verdana&quot;&gt;Технологический цикл разработки программных систем.&amp;nbsp;&lt;/font&gt;&lt;/li&gt;&lt;li&gt;&lt;font style=&quot;font-size: 16px;&quot; face=&quot;Verdana&quot;&gt;Жизненный цикл программных средств.&lt;/font&gt;&lt;/li&gt;&lt;li&gt;&lt;font style=&quot;font-size: 16px;&quot; face=&quot;Verdana&quot;&gt;Модели жизненного цикла программных средств.&amp;nbsp;&lt;/font&gt;&lt;/li&gt;&lt;li&gt;&lt;font style=&quot;font-size: 16px;&quot; face=&quot;Verdana&quot;&gt;Объектно-ориентированная технология разработки программных средств.&amp;nbsp;&lt;/font&gt;&lt;/li&gt;&lt;li&gt;&lt;font style=&quot;font-size: 16px;&quot; face=&quot;Verdana&quot;&gt;Унифицированный язык моделирования UML.&amp;nbsp;&lt;/font&gt;&lt;/li&gt;&lt;li&gt;&lt;font style=&quot;font-size: 16px;&quot; face=&quot;Verdana&quot;&gt;Модульная технология разработки программных средств.&amp;nbsp;&lt;/font&gt;&lt;/li&gt;&lt;li&gt;&lt;font style=&quot;font-size: 16px;&quot; face=&quot;Verdana&quot;&gt;Понятие модуля.&amp;nbsp;&lt;/font&gt;&lt;/li&gt;&lt;li&gt;&lt;font style=&quot;font-size: 16px;&quot; face=&quot;Verdana&quot;&gt;Внутренняя связность и внешнее сцепление модулей.&amp;nbsp;&lt;/font&gt;&lt;/li&gt;&lt;li&gt;&lt;font style=&quot;font-size: 16px;&quot; face=&quot;Verdana&quot;&gt;Методология структурного анализа и проектирования SADT (IDEF0).&amp;nbsp;&lt;/font&gt;&lt;/li&gt;&lt;li&gt;&lt;font style=&quot;font-size: 16px;&quot; face=&quot;Verdana&quot;&gt;Методология моделирования потоков данных DFD.&lt;/font&gt;&lt;/li&gt;&lt;li&gt;&lt;span style=&quot;background-color: initial;&quot;&gt;&lt;font style=&quot;font-size: 16px;&quot; face=&quot;Verdana&quot;&gt;Моделирование данных, ERD-диаграммы, методология IDEF1X.&amp;nbsp;&lt;/font&gt;&lt;/span&gt;&lt;/li&gt;&lt;li&gt;&lt;font style=&quot;font-size: 16px;&quot; face=&quot;Verdana&quot;&gt;&lt;span style=&quot;background-color: initial;&quot;&gt;Нормативные документы в&amp;nbsp;&lt;/span&gt;области информационных технологий.&amp;nbsp;&lt;/font&gt;&lt;/li&gt;&lt;li&gt;&lt;font style=&quot;font-size: 16px;&quot; face=&quot;Verdana&quot;&gt;Нормативные документы, определяющие жизненный цикл программных средств.&amp;nbsp;&lt;/font&gt;&lt;/li&gt;&lt;li&gt;&lt;font style=&quot;font-size: 16px;&quot; face=&quot;Verdana&quot;&gt;Нормативные документы, определяющие качество программных средств.&lt;/font&gt;&lt;/li&gt;&lt;li&gt;&lt;font style=&quot;font-size: 16px;&quot; face=&quot;Verdana&quot;&gt;Основные виды программных документов.&amp;nbsp;&lt;/font&gt;&lt;/li&gt;&lt;li&gt;&lt;font style=&quot;font-size: 16px;&quot; face=&quot;Verdana&quot;&gt;Тестирование и отладка программных средств.&amp;nbsp;&lt;/font&gt;&lt;/li&gt;&lt;li&gt;&lt;font style=&quot;font-size: 16px;&quot; face=&quot;Verdana&quot;&gt;Автоматизация процесса разработки программных средств.&amp;nbsp;&lt;/font&gt;&lt;/li&gt;&lt;li&gt;&lt;font style=&quot;font-size: 16px;&quot; face=&quot;Verdana&quot;&gt;Назначение, состав, классификация CASE-средств.&lt;/font&gt;&lt;/li&gt;&lt;/ol&gt;" style="text;strokeColor=default;fillColor=#90BFC4;spacingLeft=10;spacingRight=0;overflow=hidden;rotatable=0;points=[[0,0.5],[1,0.5]];portConstraint=eastwest;fontSize=14;whiteSpace=wrap;html=1;strokeWidth=2;verticalAlign=middle;spacing=2;fontStyle=1;align=left;horizontal=1;" vertex="1" parent="4ki5c7JBk0iLa5YtxHzF-147">
          <mxGeometry y="190" width="760" height="460" as="geometry" />
        </mxCell>
        <mxCell id="4ki5c7JBk0iLa5YtxHzF-149" value=" Литература:" style="swimlane;fontStyle=1;childLayout=stackLayout;horizontal=1;startSize=26;horizontalStack=0;resizeParent=1;resizeParentMax=0;resizeLast=0;collapsible=1;marginBottom=0;align=center;fontSize=18;strokeWidth=2;rounded=0;verticalAlign=middle;spacingLeft=10;whiteSpace=wrap;fillColor=#000000;strokeColor=default;fontColor=#FFFFFF;" vertex="1" collapsed="1" parent="1">
          <mxGeometry x="1250" y="797.5" width="140" height="25" as="geometry">
            <mxRectangle x="20" y="360" width="140" height="186" as="alternateBounds" />
          </mxGeometry>
        </mxCell>
        <mxCell id="4ki5c7JBk0iLa5YtxHzF-150" value="1. Учебник" style="text;strokeColor=default;fillColor=#393E46;spacingLeft=10;spacingRight=0;overflow=hidden;rotatable=0;points=[[0,0.5],[1,0.5]];portConstraint=eastwest;fontSize=14;whiteSpace=wrap;html=1;strokeWidth=2;verticalAlign=middle;spacing=2;fontStyle=0;align=left;horizontal=1;fontColor=#FFFFFF;" vertex="1" parent="4ki5c7JBk0iLa5YtxHzF-149">
          <mxGeometry y="26" width="140" height="40" as="geometry" />
        </mxCell>
        <mxCell id="4ki5c7JBk0iLa5YtxHzF-151" value="2. Учебник" style="text;strokeColor=default;fillColor=#393E46;spacingLeft=10;spacingRight=0;overflow=hidden;rotatable=0;points=[[0,0.5],[1,0.5]];portConstraint=eastwest;fontSize=14;whiteSpace=wrap;html=1;strokeWidth=2;verticalAlign=middle;spacing=2;fontStyle=0;align=left;horizontal=1;fontColor=#FFFFFF;" vertex="1" parent="4ki5c7JBk0iLa5YtxHzF-149">
          <mxGeometry y="66" width="140" height="40" as="geometry" />
        </mxCell>
        <mxCell id="4ki5c7JBk0iLa5YtxHzF-152" value="3. Учебник" style="text;strokeColor=default;fillColor=#393E46;spacingLeft=10;spacingRight=0;overflow=hidden;rotatable=0;points=[[0,0.5],[1,0.5]];portConstraint=eastwest;fontSize=14;whiteSpace=wrap;html=1;strokeWidth=2;verticalAlign=middle;spacing=2;fontStyle=0;align=left;horizontal=1;fontColor=#FFFFFF;" vertex="1" parent="4ki5c7JBk0iLa5YtxHzF-149">
          <mxGeometry y="106" width="140" height="40" as="geometry" />
        </mxCell>
        <mxCell id="4ki5c7JBk0iLa5YtxHzF-153" value="4. Учебник" style="text;strokeColor=default;fillColor=#393E46;spacingLeft=10;spacingRight=0;overflow=hidden;rotatable=0;points=[[0,0.5],[1,0.5]];portConstraint=eastwest;fontSize=14;whiteSpace=wrap;html=1;strokeWidth=2;verticalAlign=middle;spacing=2;fontStyle=0;align=left;horizontal=1;fontColor=#FFFFFF;" vertex="1" parent="4ki5c7JBk0iLa5YtxHzF-149">
          <mxGeometry y="146" width="140" height="40" as="geometry" />
        </mxCell>
        <mxCell id="4ki5c7JBk0iLa5YtxHzF-154" value="Защита информации" style="swimlane;fontStyle=1;childLayout=stackLayout;horizontal=1;startSize=190;horizontalStack=0;resizeParent=1;resizeParentMax=0;resizeLast=0;collapsible=1;marginBottom=0;align=left;fontSize=18;fillColor=#C5CAE9;strokeWidth=2;rounded=0;verticalAlign=middle;spacingLeft=40;whiteSpace=wrap;" vertex="1" collapsed="1" parent="1">
          <mxGeometry x="930" y="797.5" width="260" height="190" as="geometry">
            <mxRectangle x="1540" y="860" width="730" height="620" as="alternateBounds" />
          </mxGeometry>
        </mxCell>
        <mxCell id="4ki5c7JBk0iLa5YtxHzF-155" value="&lt;ol style=&quot;font-size: 16px;&quot;&gt;&lt;li&gt;&lt;span style=&quot;background-color: initial;&quot;&gt;&lt;font face=&quot;Verdana&quot;&gt;Основные понятия и определения.&amp;nbsp;&lt;/font&gt;&lt;/span&gt;&lt;/li&gt;&lt;li&gt;&lt;font face=&quot;Verdana&quot;&gt;&lt;span style=&quot;background-color: initial;&quot;&gt;Источники, риски и формы атак&amp;nbsp;&lt;/span&gt;на информацию.&amp;nbsp;&lt;/font&gt;&lt;/li&gt;&lt;li&gt;&lt;font face=&quot;Verdana&quot;&gt;Правовые аспекты безопасности информационных технологий.&amp;nbsp;&lt;/font&gt;&lt;/li&gt;&lt;li&gt;&lt;font face=&quot;Verdana&quot;&gt;Стандарты безопасности.&amp;nbsp;&lt;/font&gt;&lt;/li&gt;&lt;li&gt;&lt;font face=&quot;Verdana&quot;&gt;Оценка рисков нарушения информационной безопасности.&amp;nbsp;&lt;/font&gt;&lt;/li&gt;&lt;li&gt;&lt;font face=&quot;Verdana&quot;&gt;Модели угроз.&lt;/font&gt;&lt;/li&gt;&lt;li&gt;&lt;span style=&quot;background-color: initial;&quot;&gt;&lt;font face=&quot;Verdana&quot;&gt;Политика информационной безопасности.&amp;nbsp;&lt;/font&gt;&lt;/span&gt;&lt;/li&gt;&lt;li&gt;&lt;span style=&quot;background-color: initial;&quot;&gt;&lt;font face=&quot;Verdana&quot;&gt;Криптография и криптоанализ.&amp;nbsp;&lt;/font&gt;&lt;/span&gt;&lt;/li&gt;&lt;li&gt;&lt;font face=&quot;Verdana&quot;&gt;&lt;span style=&quot;background-color: initial;&quot;&gt;Криптографические&amp;nbsp;&lt;/span&gt;модели.&amp;nbsp;&lt;/font&gt;&lt;/li&gt;&lt;li&gt;&lt;font face=&quot;Verdana&quot;&gt;Алгоритмы шифрования.&amp;nbsp;&lt;/font&gt;&lt;/li&gt;&lt;li&gt;&lt;font face=&quot;Verdana&quot;&gt;Алгоритмы аутентификации пользователей.&lt;/font&gt;&lt;/li&gt;&lt;li&gt;&lt;span style=&quot;background-color: initial;&quot;&gt;&lt;font face=&quot;Verdana&quot;&gt;Криптографические методы.&amp;nbsp;&lt;/font&gt;&lt;/span&gt;&lt;/li&gt;&lt;li&gt;&lt;span style=&quot;background-color: initial;&quot;&gt;&lt;font face=&quot;Verdana&quot;&gt;Симметричные криптографические системы.&amp;nbsp;&lt;/font&gt;&lt;/span&gt;&lt;/li&gt;&lt;li&gt;&lt;font face=&quot;Verdana&quot;&gt;&lt;span style=&quot;background-color: initial;&quot;&gt;Асимметричные&amp;nbsp;&lt;/span&gt;криптографиические системы.&amp;nbsp;&lt;/font&gt;&lt;/li&gt;&lt;li&gt;&lt;font face=&quot;Verdana&quot;&gt;Электронно-цифровая подпись.&amp;nbsp;&lt;/font&gt;&lt;/li&gt;&lt;li&gt;&lt;font face=&quot;Verdana&quot;&gt;Функционирование удостоверяющего центра.&amp;nbsp;&lt;/font&gt;&lt;/li&gt;&lt;li&gt;&lt;font face=&quot;Verdana&quot;&gt;Безопасность современных сетевых технологий.&amp;nbsp;&lt;/font&gt;&lt;/li&gt;&lt;li&gt;&lt;font face=&quot;Verdana&quot;&gt;Защита информации в сетях.&amp;nbsp;&lt;/font&gt;&lt;/li&gt;&lt;li&gt;&lt;font face=&quot;Verdana&quot;&gt;Комплексная система информационной безопасности предприятия.&lt;/font&gt;&lt;/li&gt;&lt;li&gt;&lt;span style=&quot;background-color: initial;&quot;&gt;&lt;font face=&quot;Verdana&quot;&gt;Особенности защиты информационных систем персональных данных.&amp;nbsp;&lt;/font&gt;&lt;/span&gt;&lt;/li&gt;&lt;/ol&gt;" style="text;strokeColor=default;fillColor=#B8BCD9;spacingLeft=10;spacingRight=0;overflow=hidden;rotatable=0;points=[[0,0.5],[1,0.5]];portConstraint=eastwest;fontSize=14;whiteSpace=wrap;html=1;strokeWidth=2;verticalAlign=middle;spacing=2;fontStyle=1;align=left;horizontal=1;" vertex="1" parent="4ki5c7JBk0iLa5YtxHzF-154">
          <mxGeometry y="190" width="730" height="430" as="geometry" />
        </mxCell>
        <mxCell id="4ki5c7JBk0iLa5YtxHzF-156" value=" Литература:" style="swimlane;fontStyle=1;childLayout=stackLayout;horizontal=1;startSize=26;horizontalStack=0;resizeParent=1;resizeParentMax=0;resizeLast=0;collapsible=1;marginBottom=0;align=center;fontSize=18;strokeWidth=2;rounded=0;verticalAlign=middle;spacingLeft=10;whiteSpace=wrap;fillColor=#000000;strokeColor=default;fontColor=#FFFFFF;" vertex="1" collapsed="1" parent="1">
          <mxGeometry x="790" y="797.5" width="140" height="25" as="geometry">
            <mxRectangle x="20" y="360" width="140" height="186" as="alternateBounds" />
          </mxGeometry>
        </mxCell>
        <mxCell id="4ki5c7JBk0iLa5YtxHzF-157" value="1. Учебник" style="text;strokeColor=default;fillColor=#393E46;spacingLeft=10;spacingRight=0;overflow=hidden;rotatable=0;points=[[0,0.5],[1,0.5]];portConstraint=eastwest;fontSize=14;whiteSpace=wrap;html=1;strokeWidth=2;verticalAlign=middle;spacing=2;fontStyle=0;align=left;horizontal=1;fontColor=#FFFFFF;" vertex="1" parent="4ki5c7JBk0iLa5YtxHzF-156">
          <mxGeometry y="26" width="140" height="40" as="geometry" />
        </mxCell>
        <mxCell id="4ki5c7JBk0iLa5YtxHzF-158" value="2. Учебник" style="text;strokeColor=default;fillColor=#393E46;spacingLeft=10;spacingRight=0;overflow=hidden;rotatable=0;points=[[0,0.5],[1,0.5]];portConstraint=eastwest;fontSize=14;whiteSpace=wrap;html=1;strokeWidth=2;verticalAlign=middle;spacing=2;fontStyle=0;align=left;horizontal=1;fontColor=#FFFFFF;" vertex="1" parent="4ki5c7JBk0iLa5YtxHzF-156">
          <mxGeometry y="66" width="140" height="40" as="geometry" />
        </mxCell>
        <mxCell id="4ki5c7JBk0iLa5YtxHzF-159" value="3. Учебник" style="text;strokeColor=default;fillColor=#393E46;spacingLeft=10;spacingRight=0;overflow=hidden;rotatable=0;points=[[0,0.5],[1,0.5]];portConstraint=eastwest;fontSize=14;whiteSpace=wrap;html=1;strokeWidth=2;verticalAlign=middle;spacing=2;fontStyle=0;align=left;horizontal=1;fontColor=#FFFFFF;" vertex="1" parent="4ki5c7JBk0iLa5YtxHzF-156">
          <mxGeometry y="106" width="140" height="40" as="geometry" />
        </mxCell>
        <mxCell id="4ki5c7JBk0iLa5YtxHzF-160" value="4. Учебник" style="text;strokeColor=default;fillColor=#393E46;spacingLeft=10;spacingRight=0;overflow=hidden;rotatable=0;points=[[0,0.5],[1,0.5]];portConstraint=eastwest;fontSize=14;whiteSpace=wrap;html=1;strokeWidth=2;verticalAlign=middle;spacing=2;fontStyle=0;align=left;horizontal=1;fontColor=#FFFFFF;" vertex="1" parent="4ki5c7JBk0iLa5YtxHzF-156">
          <mxGeometry y="146" width="140" height="40" as="geometry" />
        </mxCell>
        <mxCell id="4ZT7yi2DUqxVnpLDydQl-181" value=" Литература:" style="swimlane;fontStyle=1;childLayout=stackLayout;horizontal=1;startSize=26;horizontalStack=0;resizeParent=1;resizeParentMax=0;resizeLast=0;collapsible=1;marginBottom=0;align=center;fontSize=18;strokeWidth=2;rounded=0;verticalAlign=middle;spacingLeft=10;whiteSpace=wrap;fillColor=#000000;strokeColor=default;fontColor=#FFFFFF;" parent="1" vertex="1" collapsed="1">
          <mxGeometry x="-130" y="197.5" width="140" height="25" as="geometry">
            <mxRectangle x="940" y="260" width="140" height="186" as="alternateBounds" />
          </mxGeometry>
        </mxCell>
        <mxCell id="4ZT7yi2DUqxVnpLDydQl-182" value="1. Учебник" style="text;strokeColor=default;fillColor=#393E46;spacingLeft=10;spacingRight=0;overflow=hidden;rotatable=0;points=[[0,0.5],[1,0.5]];portConstraint=eastwest;fontSize=14;whiteSpace=wrap;html=1;strokeWidth=2;verticalAlign=middle;spacing=2;fontStyle=0;align=left;horizontal=1;fontColor=#FFFFFF;" parent="4ZT7yi2DUqxVnpLDydQl-181" vertex="1">
          <mxGeometry y="26" width="140" height="40" as="geometry" />
        </mxCell>
        <mxCell id="4ZT7yi2DUqxVnpLDydQl-183" value="2. Учебник" style="text;strokeColor=default;fillColor=#393E46;spacingLeft=10;spacingRight=0;overflow=hidden;rotatable=0;points=[[0,0.5],[1,0.5]];portConstraint=eastwest;fontSize=14;whiteSpace=wrap;html=1;strokeWidth=2;verticalAlign=middle;spacing=2;fontStyle=0;align=left;horizontal=1;fontColor=#FFFFFF;" parent="4ZT7yi2DUqxVnpLDydQl-181" vertex="1">
          <mxGeometry y="66" width="140" height="40" as="geometry" />
        </mxCell>
        <mxCell id="4ZT7yi2DUqxVnpLDydQl-184" value="3. Учебник" style="text;strokeColor=default;fillColor=#393E46;spacingLeft=10;spacingRight=0;overflow=hidden;rotatable=0;points=[[0,0.5],[1,0.5]];portConstraint=eastwest;fontSize=14;whiteSpace=wrap;html=1;strokeWidth=2;verticalAlign=middle;spacing=2;fontStyle=0;align=left;horizontal=1;fontColor=#FFFFFF;" parent="4ZT7yi2DUqxVnpLDydQl-181" vertex="1">
          <mxGeometry y="106" width="140" height="40" as="geometry" />
        </mxCell>
        <mxCell id="4ZT7yi2DUqxVnpLDydQl-185" value="4. Учебник" style="text;strokeColor=default;fillColor=#393E46;spacingLeft=10;spacingRight=0;overflow=hidden;rotatable=0;points=[[0,0.5],[1,0.5]];portConstraint=eastwest;fontSize=14;whiteSpace=wrap;html=1;strokeWidth=2;verticalAlign=middle;spacing=2;fontStyle=0;align=left;horizontal=1;fontColor=#FFFFFF;" parent="4ZT7yi2DUqxVnpLDydQl-181" vertex="1">
          <mxGeometry y="146" width="140" height="40" as="geometry" />
        </mxCell>
        <mxCell id="y7rmreXHusG0yKeAJwIb-71" value=" Литература:" style="swimlane;fontStyle=1;childLayout=stackLayout;horizontal=1;startSize=26;horizontalStack=0;resizeParent=1;resizeParentMax=0;resizeLast=0;collapsible=1;marginBottom=0;align=center;fontSize=18;strokeWidth=2;rounded=0;verticalAlign=middle;spacingLeft=10;whiteSpace=wrap;fillColor=#000000;strokeColor=default;fontColor=#FFFFFF;" parent="1" vertex="1" collapsed="1">
          <mxGeometry x="-130" y="77.5" width="140" height="25" as="geometry">
            <mxRectangle x="480" y="120" width="140" height="186" as="alternateBounds" />
          </mxGeometry>
        </mxCell>
        <mxCell id="y7rmreXHusG0yKeAJwIb-72" value="1. Учебник" style="text;strokeColor=default;fillColor=#393E46;spacingLeft=10;spacingRight=0;overflow=hidden;rotatable=0;points=[[0,0.5],[1,0.5]];portConstraint=eastwest;fontSize=14;whiteSpace=wrap;html=1;strokeWidth=2;verticalAlign=middle;spacing=2;fontStyle=0;align=left;horizontal=1;fontColor=#FFFFFF;" parent="y7rmreXHusG0yKeAJwIb-71" vertex="1">
          <mxGeometry y="26" width="140" height="40" as="geometry" />
        </mxCell>
        <mxCell id="y7rmreXHusG0yKeAJwIb-73" value="2. Учебник" style="text;strokeColor=default;fillColor=#393E46;spacingLeft=10;spacingRight=0;overflow=hidden;rotatable=0;points=[[0,0.5],[1,0.5]];portConstraint=eastwest;fontSize=14;whiteSpace=wrap;html=1;strokeWidth=2;verticalAlign=middle;spacing=2;fontStyle=0;align=left;horizontal=1;fontColor=#FFFFFF;" parent="y7rmreXHusG0yKeAJwIb-71" vertex="1">
          <mxGeometry y="66" width="140" height="40" as="geometry" />
        </mxCell>
        <mxCell id="y7rmreXHusG0yKeAJwIb-74" value="3. Учебник" style="text;strokeColor=default;fillColor=#393E46;spacingLeft=10;spacingRight=0;overflow=hidden;rotatable=0;points=[[0,0.5],[1,0.5]];portConstraint=eastwest;fontSize=14;whiteSpace=wrap;html=1;strokeWidth=2;verticalAlign=middle;spacing=2;fontStyle=0;align=left;horizontal=1;fontColor=#FFFFFF;" parent="y7rmreXHusG0yKeAJwIb-71" vertex="1">
          <mxGeometry y="106" width="140" height="40" as="geometry" />
        </mxCell>
        <mxCell id="y7rmreXHusG0yKeAJwIb-75" value="4. Учебник" style="text;strokeColor=default;fillColor=#393E46;spacingLeft=10;spacingRight=0;overflow=hidden;rotatable=0;points=[[0,0.5],[1,0.5]];portConstraint=eastwest;fontSize=14;whiteSpace=wrap;html=1;strokeWidth=2;verticalAlign=middle;spacing=2;fontStyle=0;align=left;horizontal=1;fontColor=#FFFFFF;" parent="y7rmreXHusG0yKeAJwIb-71" vertex="1">
          <mxGeometry y="146" width="140" height="40" as="geometry" />
        </mxCell>
        <mxCell id="4ZT7yi2DUqxVnpLDydQl-160" value=" Литература:" style="swimlane;fontStyle=1;childLayout=stackLayout;horizontal=1;startSize=26;horizontalStack=0;resizeParent=1;resizeParentMax=0;resizeLast=0;collapsible=1;marginBottom=0;align=center;fontSize=18;strokeWidth=2;rounded=0;verticalAlign=middle;spacingLeft=10;whiteSpace=wrap;fillColor=#000000;strokeColor=default;fontColor=#FFFFFF;" parent="1" vertex="1" collapsed="1">
          <mxGeometry x="330" y="77.5" width="140" height="25" as="geometry">
            <mxRectangle x="480" y="140" width="140" height="186" as="alternateBounds" />
          </mxGeometry>
        </mxCell>
        <mxCell id="4ZT7yi2DUqxVnpLDydQl-161" value="1. Учебник" style="text;strokeColor=default;fillColor=#393E46;spacingLeft=10;spacingRight=0;overflow=hidden;rotatable=0;points=[[0,0.5],[1,0.5]];portConstraint=eastwest;fontSize=14;whiteSpace=wrap;html=1;strokeWidth=2;verticalAlign=middle;spacing=2;fontStyle=0;align=left;horizontal=1;fontColor=#FFFFFF;" parent="4ZT7yi2DUqxVnpLDydQl-160" vertex="1">
          <mxGeometry y="26" width="140" height="40" as="geometry" />
        </mxCell>
        <mxCell id="4ZT7yi2DUqxVnpLDydQl-162" value="2. Учебник" style="text;strokeColor=default;fillColor=#393E46;spacingLeft=10;spacingRight=0;overflow=hidden;rotatable=0;points=[[0,0.5],[1,0.5]];portConstraint=eastwest;fontSize=14;whiteSpace=wrap;html=1;strokeWidth=2;verticalAlign=middle;spacing=2;fontStyle=0;align=left;horizontal=1;fontColor=#FFFFFF;" parent="4ZT7yi2DUqxVnpLDydQl-160" vertex="1">
          <mxGeometry y="66" width="140" height="40" as="geometry" />
        </mxCell>
        <mxCell id="4ZT7yi2DUqxVnpLDydQl-163" value="3. Учебник" style="text;strokeColor=default;fillColor=#393E46;spacingLeft=10;spacingRight=0;overflow=hidden;rotatable=0;points=[[0,0.5],[1,0.5]];portConstraint=eastwest;fontSize=14;whiteSpace=wrap;html=1;strokeWidth=2;verticalAlign=middle;spacing=2;fontStyle=0;align=left;horizontal=1;fontColor=#FFFFFF;" parent="4ZT7yi2DUqxVnpLDydQl-160" vertex="1">
          <mxGeometry y="106" width="140" height="40" as="geometry" />
        </mxCell>
        <mxCell id="4ZT7yi2DUqxVnpLDydQl-164" value="4. Учебник" style="text;strokeColor=default;fillColor=#393E46;spacingLeft=10;spacingRight=0;overflow=hidden;rotatable=0;points=[[0,0.5],[1,0.5]];portConstraint=eastwest;fontSize=14;whiteSpace=wrap;html=1;strokeWidth=2;verticalAlign=middle;spacing=2;fontStyle=0;align=left;horizontal=1;fontColor=#FFFFFF;" parent="4ZT7yi2DUqxVnpLDydQl-160" vertex="1">
          <mxGeometry y="146" width="140" height="40" as="geometry" />
        </mxCell>
        <mxCell id="y7rmreXHusG0yKeAJwIb-133" value="" style="endArrow=classic;html=1;rounded=0;entryX=0.5;entryY=0;entryDx=0;entryDy=0;strokeWidth=3;fontStyle=1" parent="1" edge="1">
          <mxGeometry width="50" height="50" relative="1" as="geometry">
            <mxPoint x="-320" y="267.5" as="sourcePoint" />
            <mxPoint x="-320.42" y="317.5" as="targetPoint" />
          </mxGeometry>
        </mxCell>
        <mxCell id="y7rmreXHusG0yKeAJwIb-136" value=" Литература:" style="swimlane;fontStyle=1;childLayout=stackLayout;horizontal=1;startSize=26;horizontalStack=0;resizeParent=1;resizeParentMax=0;resizeLast=0;collapsible=1;marginBottom=0;align=center;fontSize=18;strokeWidth=2;rounded=0;verticalAlign=middle;spacingLeft=10;whiteSpace=wrap;fillColor=#000000;strokeColor=default;fontColor=#FFFFFF;" parent="1" vertex="1" collapsed="1">
          <mxGeometry x="-130" y="317.5" width="140" height="25" as="geometry">
            <mxRectangle x="940" y="380" width="140" height="186" as="alternateBounds" />
          </mxGeometry>
        </mxCell>
        <mxCell id="y7rmreXHusG0yKeAJwIb-137" value="1. Учебник" style="text;strokeColor=default;fillColor=#393E46;spacingLeft=10;spacingRight=0;overflow=hidden;rotatable=0;points=[[0,0.5],[1,0.5]];portConstraint=eastwest;fontSize=14;whiteSpace=wrap;html=1;strokeWidth=2;verticalAlign=middle;spacing=2;fontStyle=0;align=left;horizontal=1;fontColor=#FFFFFF;" parent="y7rmreXHusG0yKeAJwIb-136" vertex="1">
          <mxGeometry y="26" width="140" height="40" as="geometry" />
        </mxCell>
        <mxCell id="y7rmreXHusG0yKeAJwIb-138" value="2. Учебник" style="text;strokeColor=default;fillColor=#393E46;spacingLeft=10;spacingRight=0;overflow=hidden;rotatable=0;points=[[0,0.5],[1,0.5]];portConstraint=eastwest;fontSize=14;whiteSpace=wrap;html=1;strokeWidth=2;verticalAlign=middle;spacing=2;fontStyle=0;align=left;horizontal=1;fontColor=#FFFFFF;" parent="y7rmreXHusG0yKeAJwIb-136" vertex="1">
          <mxGeometry y="66" width="140" height="40" as="geometry" />
        </mxCell>
        <mxCell id="y7rmreXHusG0yKeAJwIb-139" value="3. Учебник" style="text;strokeColor=default;fillColor=#393E46;spacingLeft=10;spacingRight=0;overflow=hidden;rotatable=0;points=[[0,0.5],[1,0.5]];portConstraint=eastwest;fontSize=14;whiteSpace=wrap;html=1;strokeWidth=2;verticalAlign=middle;spacing=2;fontStyle=0;align=left;horizontal=1;fontColor=#FFFFFF;" parent="y7rmreXHusG0yKeAJwIb-136" vertex="1">
          <mxGeometry y="106" width="140" height="40" as="geometry" />
        </mxCell>
        <mxCell id="y7rmreXHusG0yKeAJwIb-140" value="4. Учебник" style="text;strokeColor=default;fillColor=#393E46;spacingLeft=10;spacingRight=0;overflow=hidden;rotatable=0;points=[[0,0.5],[1,0.5]];portConstraint=eastwest;fontSize=14;whiteSpace=wrap;html=1;strokeWidth=2;verticalAlign=middle;spacing=2;fontStyle=0;align=left;horizontal=1;fontColor=#FFFFFF;" parent="y7rmreXHusG0yKeAJwIb-136" vertex="1">
          <mxGeometry y="146" width="140" height="40" as="geometry" />
        </mxCell>
        <mxCell id="4ZT7yi2DUqxVnpLDydQl-170" value=" Литература:" style="swimlane;fontStyle=1;childLayout=stackLayout;horizontal=1;startSize=26;horizontalStack=0;resizeParent=1;resizeParentMax=0;resizeLast=0;collapsible=1;marginBottom=0;align=center;fontSize=18;strokeWidth=2;rounded=0;verticalAlign=middle;spacingLeft=10;whiteSpace=wrap;fillColor=#000000;strokeColor=default;fontColor=#FFFFFF;" parent="1" vertex="1" collapsed="1">
          <mxGeometry x="330" y="317.5" width="140" height="25" as="geometry">
            <mxRectangle x="480" y="250" width="140" height="186" as="alternateBounds" />
          </mxGeometry>
        </mxCell>
        <mxCell id="4ZT7yi2DUqxVnpLDydQl-171" value="1. Учебник" style="text;strokeColor=default;fillColor=#393E46;spacingLeft=10;spacingRight=0;overflow=hidden;rotatable=0;points=[[0,0.5],[1,0.5]];portConstraint=eastwest;fontSize=14;whiteSpace=wrap;html=1;strokeWidth=2;verticalAlign=middle;spacing=2;fontStyle=0;align=left;horizontal=1;fontColor=#FFFFFF;" parent="4ZT7yi2DUqxVnpLDydQl-170" vertex="1">
          <mxGeometry y="26" width="140" height="40" as="geometry" />
        </mxCell>
        <mxCell id="4ZT7yi2DUqxVnpLDydQl-172" value="2. Учебник" style="text;strokeColor=default;fillColor=#393E46;spacingLeft=10;spacingRight=0;overflow=hidden;rotatable=0;points=[[0,0.5],[1,0.5]];portConstraint=eastwest;fontSize=14;whiteSpace=wrap;html=1;strokeWidth=2;verticalAlign=middle;spacing=2;fontStyle=0;align=left;horizontal=1;fontColor=#FFFFFF;" parent="4ZT7yi2DUqxVnpLDydQl-170" vertex="1">
          <mxGeometry y="66" width="140" height="40" as="geometry" />
        </mxCell>
        <mxCell id="4ZT7yi2DUqxVnpLDydQl-173" value="3. Учебник" style="text;strokeColor=default;fillColor=#393E46;spacingLeft=10;spacingRight=0;overflow=hidden;rotatable=0;points=[[0,0.5],[1,0.5]];portConstraint=eastwest;fontSize=14;whiteSpace=wrap;html=1;strokeWidth=2;verticalAlign=middle;spacing=2;fontStyle=0;align=left;horizontal=1;fontColor=#FFFFFF;" parent="4ZT7yi2DUqxVnpLDydQl-170" vertex="1">
          <mxGeometry y="106" width="140" height="40" as="geometry" />
        </mxCell>
        <mxCell id="4ZT7yi2DUqxVnpLDydQl-174" value="4. Учебник" style="text;strokeColor=default;fillColor=#393E46;spacingLeft=10;spacingRight=0;overflow=hidden;rotatable=0;points=[[0,0.5],[1,0.5]];portConstraint=eastwest;fontSize=14;whiteSpace=wrap;html=1;strokeWidth=2;verticalAlign=middle;spacing=2;fontStyle=0;align=left;horizontal=1;fontColor=#FFFFFF;" parent="4ZT7yi2DUqxVnpLDydQl-170" vertex="1">
          <mxGeometry y="146" width="140" height="40" as="geometry" />
        </mxCell>
        <mxCell id="y7rmreXHusG0yKeAJwIb-89" value=" Литература:" style="swimlane;fontStyle=1;childLayout=stackLayout;horizontal=1;startSize=26;horizontalStack=0;resizeParent=1;resizeParentMax=0;resizeLast=0;collapsible=1;marginBottom=0;align=center;fontSize=18;strokeWidth=2;rounded=0;verticalAlign=middle;spacingLeft=10;whiteSpace=wrap;fillColor=#000000;strokeColor=default;fontColor=#FFFFFF;" parent="1" vertex="1" collapsed="1">
          <mxGeometry x="-130" y="437.5" width="140" height="25" as="geometry">
            <mxRectangle x="480" y="120" width="140" height="186" as="alternateBounds" />
          </mxGeometry>
        </mxCell>
        <mxCell id="y7rmreXHusG0yKeAJwIb-90" value="1. Учебник" style="text;strokeColor=default;fillColor=#393E46;spacingLeft=10;spacingRight=0;overflow=hidden;rotatable=0;points=[[0,0.5],[1,0.5]];portConstraint=eastwest;fontSize=14;whiteSpace=wrap;html=1;strokeWidth=2;verticalAlign=middle;spacing=2;fontStyle=0;align=left;horizontal=1;fontColor=#FFFFFF;" parent="y7rmreXHusG0yKeAJwIb-89" vertex="1">
          <mxGeometry y="26" width="140" height="40" as="geometry" />
        </mxCell>
        <mxCell id="y7rmreXHusG0yKeAJwIb-91" value="2. Учебник" style="text;strokeColor=default;fillColor=#393E46;spacingLeft=10;spacingRight=0;overflow=hidden;rotatable=0;points=[[0,0.5],[1,0.5]];portConstraint=eastwest;fontSize=14;whiteSpace=wrap;html=1;strokeWidth=2;verticalAlign=middle;spacing=2;fontStyle=0;align=left;horizontal=1;fontColor=#FFFFFF;" parent="y7rmreXHusG0yKeAJwIb-89" vertex="1">
          <mxGeometry y="66" width="140" height="40" as="geometry" />
        </mxCell>
        <mxCell id="y7rmreXHusG0yKeAJwIb-92" value="3. Учебник" style="text;strokeColor=default;fillColor=#393E46;spacingLeft=10;spacingRight=0;overflow=hidden;rotatable=0;points=[[0,0.5],[1,0.5]];portConstraint=eastwest;fontSize=14;whiteSpace=wrap;html=1;strokeWidth=2;verticalAlign=middle;spacing=2;fontStyle=0;align=left;horizontal=1;fontColor=#FFFFFF;" parent="y7rmreXHusG0yKeAJwIb-89" vertex="1">
          <mxGeometry y="106" width="140" height="40" as="geometry" />
        </mxCell>
        <mxCell id="y7rmreXHusG0yKeAJwIb-93" value="4. Учебник" style="text;strokeColor=default;fillColor=#393E46;spacingLeft=10;spacingRight=0;overflow=hidden;rotatable=0;points=[[0,0.5],[1,0.5]];portConstraint=eastwest;fontSize=14;whiteSpace=wrap;html=1;strokeWidth=2;verticalAlign=middle;spacing=2;fontStyle=0;align=left;horizontal=1;fontColor=#FFFFFF;" parent="y7rmreXHusG0yKeAJwIb-89" vertex="1">
          <mxGeometry y="146" width="140" height="40" as="geometry" />
        </mxCell>
        <mxCell id="y7rmreXHusG0yKeAJwIb-47" value=" Литература:" style="swimlane;fontStyle=1;childLayout=stackLayout;horizontal=1;startSize=26;horizontalStack=0;resizeParent=1;resizeParentMax=0;resizeLast=0;collapsible=1;marginBottom=0;align=center;fontSize=18;strokeWidth=2;rounded=0;verticalAlign=middle;spacingLeft=10;whiteSpace=wrap;fillColor=#000000;strokeColor=default;fontColor=#FFFFFF;" parent="1" vertex="1" collapsed="1">
          <mxGeometry x="330" y="197.5" width="140" height="25" as="geometry">
            <mxRectangle x="480" y="255" width="140" height="186" as="alternateBounds" />
          </mxGeometry>
        </mxCell>
        <mxCell id="y7rmreXHusG0yKeAJwIb-48" value="1. Учебник" style="text;strokeColor=default;fillColor=#393E46;spacingLeft=10;spacingRight=0;overflow=hidden;rotatable=0;points=[[0,0.5],[1,0.5]];portConstraint=eastwest;fontSize=14;whiteSpace=wrap;html=1;strokeWidth=2;verticalAlign=middle;spacing=2;fontStyle=0;align=left;horizontal=1;fontColor=#FFFFFF;" parent="y7rmreXHusG0yKeAJwIb-47" vertex="1">
          <mxGeometry y="26" width="140" height="40" as="geometry" />
        </mxCell>
        <mxCell id="y7rmreXHusG0yKeAJwIb-49" value="2. Учебник" style="text;strokeColor=default;fillColor=#393E46;spacingLeft=10;spacingRight=0;overflow=hidden;rotatable=0;points=[[0,0.5],[1,0.5]];portConstraint=eastwest;fontSize=14;whiteSpace=wrap;html=1;strokeWidth=2;verticalAlign=middle;spacing=2;fontStyle=0;align=left;horizontal=1;fontColor=#FFFFFF;" parent="y7rmreXHusG0yKeAJwIb-47" vertex="1">
          <mxGeometry y="66" width="140" height="40" as="geometry" />
        </mxCell>
        <mxCell id="y7rmreXHusG0yKeAJwIb-50" value="3. Учебник" style="text;strokeColor=default;fillColor=#393E46;spacingLeft=10;spacingRight=0;overflow=hidden;rotatable=0;points=[[0,0.5],[1,0.5]];portConstraint=eastwest;fontSize=14;whiteSpace=wrap;html=1;strokeWidth=2;verticalAlign=middle;spacing=2;fontStyle=0;align=left;horizontal=1;fontColor=#FFFFFF;" parent="y7rmreXHusG0yKeAJwIb-47" vertex="1">
          <mxGeometry y="106" width="140" height="40" as="geometry" />
        </mxCell>
        <mxCell id="y7rmreXHusG0yKeAJwIb-51" value="4. Учебник" style="text;strokeColor=default;fillColor=#393E46;spacingLeft=10;spacingRight=0;overflow=hidden;rotatable=0;points=[[0,0.5],[1,0.5]];portConstraint=eastwest;fontSize=14;whiteSpace=wrap;html=1;strokeWidth=2;verticalAlign=middle;spacing=2;fontStyle=0;align=left;horizontal=1;fontColor=#FFFFFF;" parent="y7rmreXHusG0yKeAJwIb-47" vertex="1">
          <mxGeometry y="146" width="140" height="40" as="geometry" />
        </mxCell>
        <mxCell id="4ZT7yi2DUqxVnpLDydQl-165" value=" Литература:" style="swimlane;fontStyle=1;childLayout=stackLayout;horizontal=1;startSize=26;horizontalStack=0;resizeParent=1;resizeParentMax=0;resizeLast=0;collapsible=1;marginBottom=0;align=center;fontSize=18;strokeWidth=2;rounded=0;verticalAlign=middle;spacingLeft=10;whiteSpace=wrap;fillColor=#000000;strokeColor=default;fontColor=#FFFFFF;" parent="1" vertex="1" collapsed="1">
          <mxGeometry x="-590" y="317.5" width="140" height="25" as="geometry">
            <mxRectangle x="20" y="360" width="140" height="186" as="alternateBounds" />
          </mxGeometry>
        </mxCell>
        <mxCell id="4ZT7yi2DUqxVnpLDydQl-166" value="1. Учебник" style="text;strokeColor=default;fillColor=#393E46;spacingLeft=10;spacingRight=0;overflow=hidden;rotatable=0;points=[[0,0.5],[1,0.5]];portConstraint=eastwest;fontSize=14;whiteSpace=wrap;html=1;strokeWidth=2;verticalAlign=middle;spacing=2;fontStyle=0;align=left;horizontal=1;fontColor=#FFFFFF;" parent="4ZT7yi2DUqxVnpLDydQl-165" vertex="1">
          <mxGeometry y="26" width="140" height="40" as="geometry" />
        </mxCell>
        <mxCell id="4ZT7yi2DUqxVnpLDydQl-167" value="2. Учебник" style="text;strokeColor=default;fillColor=#393E46;spacingLeft=10;spacingRight=0;overflow=hidden;rotatable=0;points=[[0,0.5],[1,0.5]];portConstraint=eastwest;fontSize=14;whiteSpace=wrap;html=1;strokeWidth=2;verticalAlign=middle;spacing=2;fontStyle=0;align=left;horizontal=1;fontColor=#FFFFFF;" parent="4ZT7yi2DUqxVnpLDydQl-165" vertex="1">
          <mxGeometry y="66" width="140" height="40" as="geometry" />
        </mxCell>
        <mxCell id="4ZT7yi2DUqxVnpLDydQl-168" value="3. Учебник" style="text;strokeColor=default;fillColor=#393E46;spacingLeft=10;spacingRight=0;overflow=hidden;rotatable=0;points=[[0,0.5],[1,0.5]];portConstraint=eastwest;fontSize=14;whiteSpace=wrap;html=1;strokeWidth=2;verticalAlign=middle;spacing=2;fontStyle=0;align=left;horizontal=1;fontColor=#FFFFFF;" parent="4ZT7yi2DUqxVnpLDydQl-165" vertex="1">
          <mxGeometry y="106" width="140" height="40" as="geometry" />
        </mxCell>
        <mxCell id="4ZT7yi2DUqxVnpLDydQl-169" value="4. Учебник" style="text;strokeColor=default;fillColor=#393E46;spacingLeft=10;spacingRight=0;overflow=hidden;rotatable=0;points=[[0,0.5],[1,0.5]];portConstraint=eastwest;fontSize=14;whiteSpace=wrap;html=1;strokeWidth=2;verticalAlign=middle;spacing=2;fontStyle=0;align=left;horizontal=1;fontColor=#FFFFFF;" parent="4ZT7yi2DUqxVnpLDydQl-165" vertex="1">
          <mxGeometry y="146" width="140" height="40" as="geometry" />
        </mxCell>
        <mxCell id="4ZT7yi2DUqxVnpLDydQl-154" value=" Литература:" style="swimlane;fontStyle=1;childLayout=stackLayout;horizontal=1;startSize=26;horizontalStack=0;resizeParent=1;resizeParentMax=0;resizeLast=0;collapsible=1;marginBottom=0;align=center;fontSize=18;strokeWidth=2;rounded=0;verticalAlign=middle;spacingLeft=10;whiteSpace=wrap;fillColor=#000000;strokeColor=default;fontColor=#FFFFFF;" parent="1" vertex="1" collapsed="1">
          <mxGeometry x="-590" y="77.5" width="140" height="25" as="geometry">
            <mxRectangle x="20" y="120" width="140" height="186" as="alternateBounds" />
          </mxGeometry>
        </mxCell>
        <mxCell id="4ZT7yi2DUqxVnpLDydQl-156" value="1. Учебник" style="text;strokeColor=default;fillColor=#393E46;spacingLeft=10;spacingRight=0;overflow=hidden;rotatable=0;points=[[0,0.5],[1,0.5]];portConstraint=eastwest;fontSize=14;whiteSpace=wrap;html=1;strokeWidth=2;verticalAlign=middle;spacing=2;fontStyle=0;align=left;horizontal=1;fontColor=#FFFFFF;" parent="4ZT7yi2DUqxVnpLDydQl-154" vertex="1">
          <mxGeometry y="26" width="140" height="40" as="geometry" />
        </mxCell>
        <mxCell id="4ZT7yi2DUqxVnpLDydQl-157" value="2. Учебник" style="text;strokeColor=default;fillColor=#393E46;spacingLeft=10;spacingRight=0;overflow=hidden;rotatable=0;points=[[0,0.5],[1,0.5]];portConstraint=eastwest;fontSize=14;whiteSpace=wrap;html=1;strokeWidth=2;verticalAlign=middle;spacing=2;fontStyle=0;align=left;horizontal=1;fontColor=#FFFFFF;" parent="4ZT7yi2DUqxVnpLDydQl-154" vertex="1">
          <mxGeometry y="66" width="140" height="40" as="geometry" />
        </mxCell>
        <mxCell id="4ZT7yi2DUqxVnpLDydQl-158" value="3. Учебник" style="text;strokeColor=default;fillColor=#393E46;spacingLeft=10;spacingRight=0;overflow=hidden;rotatable=0;points=[[0,0.5],[1,0.5]];portConstraint=eastwest;fontSize=14;whiteSpace=wrap;html=1;strokeWidth=2;verticalAlign=middle;spacing=2;fontStyle=0;align=left;horizontal=1;fontColor=#FFFFFF;" parent="4ZT7yi2DUqxVnpLDydQl-154" vertex="1">
          <mxGeometry y="106" width="140" height="40" as="geometry" />
        </mxCell>
        <mxCell id="4ZT7yi2DUqxVnpLDydQl-155" value="4. Учебник" style="text;strokeColor=default;fillColor=#393E46;spacingLeft=10;spacingRight=0;overflow=hidden;rotatable=0;points=[[0,0.5],[1,0.5]];portConstraint=eastwest;fontSize=14;whiteSpace=wrap;html=1;strokeWidth=2;verticalAlign=middle;spacing=2;fontStyle=0;align=left;horizontal=1;fontColor=#FFFFFF;" parent="4ZT7yi2DUqxVnpLDydQl-154" vertex="1">
          <mxGeometry y="146" width="140" height="40" as="geometry" />
        </mxCell>
        <mxCell id="y7rmreXHusG0yKeAJwIb-191" value=" Литература:" style="swimlane;fontStyle=1;childLayout=stackLayout;horizontal=1;startSize=26;horizontalStack=0;resizeParent=1;resizeParentMax=0;resizeLast=0;collapsible=1;marginBottom=0;align=center;fontSize=18;strokeWidth=2;rounded=0;verticalAlign=middle;spacingLeft=10;whiteSpace=wrap;fillColor=#000000;strokeColor=default;fontColor=#FFFFFF;" parent="1" vertex="1" collapsed="1">
          <mxGeometry x="1250" y="437.5" width="140" height="25" as="geometry">
            <mxRectangle x="480" y="120" width="140" height="186" as="alternateBounds" />
          </mxGeometry>
        </mxCell>
        <mxCell id="y7rmreXHusG0yKeAJwIb-192" value="1. Учебник" style="text;strokeColor=default;fillColor=#393E46;spacingLeft=10;spacingRight=0;overflow=hidden;rotatable=0;points=[[0,0.5],[1,0.5]];portConstraint=eastwest;fontSize=14;whiteSpace=wrap;html=1;strokeWidth=2;verticalAlign=middle;spacing=2;fontStyle=0;align=left;horizontal=1;fontColor=#FFFFFF;" parent="y7rmreXHusG0yKeAJwIb-191" vertex="1">
          <mxGeometry y="26" width="140" height="40" as="geometry" />
        </mxCell>
        <mxCell id="y7rmreXHusG0yKeAJwIb-193" value="2. Учебник" style="text;strokeColor=default;fillColor=#393E46;spacingLeft=10;spacingRight=0;overflow=hidden;rotatable=0;points=[[0,0.5],[1,0.5]];portConstraint=eastwest;fontSize=14;whiteSpace=wrap;html=1;strokeWidth=2;verticalAlign=middle;spacing=2;fontStyle=0;align=left;horizontal=1;fontColor=#FFFFFF;" parent="y7rmreXHusG0yKeAJwIb-191" vertex="1">
          <mxGeometry y="66" width="140" height="40" as="geometry" />
        </mxCell>
        <mxCell id="y7rmreXHusG0yKeAJwIb-194" value="3. Учебник" style="text;strokeColor=default;fillColor=#393E46;spacingLeft=10;spacingRight=0;overflow=hidden;rotatable=0;points=[[0,0.5],[1,0.5]];portConstraint=eastwest;fontSize=14;whiteSpace=wrap;html=1;strokeWidth=2;verticalAlign=middle;spacing=2;fontStyle=0;align=left;horizontal=1;fontColor=#FFFFFF;" parent="y7rmreXHusG0yKeAJwIb-191" vertex="1">
          <mxGeometry y="106" width="140" height="40" as="geometry" />
        </mxCell>
        <mxCell id="y7rmreXHusG0yKeAJwIb-195" value="4. Учебник" style="text;strokeColor=default;fillColor=#393E46;spacingLeft=10;spacingRight=0;overflow=hidden;rotatable=0;points=[[0,0.5],[1,0.5]];portConstraint=eastwest;fontSize=14;whiteSpace=wrap;html=1;strokeWidth=2;verticalAlign=middle;spacing=2;fontStyle=0;align=left;horizontal=1;fontColor=#FFFFFF;" parent="y7rmreXHusG0yKeAJwIb-191" vertex="1">
          <mxGeometry y="146" width="140" height="40" as="geometry" />
        </mxCell>
        <mxCell id="y7rmreXHusG0yKeAJwIb-221" value=" Литература:" style="swimlane;fontStyle=1;childLayout=stackLayout;horizontal=1;startSize=26;horizontalStack=0;resizeParent=1;resizeParentMax=0;resizeLast=0;collapsible=1;marginBottom=0;align=center;fontSize=18;strokeWidth=2;rounded=0;verticalAlign=middle;spacingLeft=10;whiteSpace=wrap;fillColor=#000000;strokeColor=default;fontColor=#FFFFFF;" parent="1" vertex="1" collapsed="1">
          <mxGeometry x="790" y="437.5" width="140" height="25" as="geometry">
            <mxRectangle x="1860" y="500" width="140" height="186" as="alternateBounds" />
          </mxGeometry>
        </mxCell>
        <mxCell id="y7rmreXHusG0yKeAJwIb-222" value="1. Учебник" style="text;strokeColor=default;fillColor=#393E46;spacingLeft=10;spacingRight=0;overflow=hidden;rotatable=0;points=[[0,0.5],[1,0.5]];portConstraint=eastwest;fontSize=14;whiteSpace=wrap;html=1;strokeWidth=2;verticalAlign=middle;spacing=2;fontStyle=0;align=left;horizontal=1;fontColor=#FFFFFF;" parent="y7rmreXHusG0yKeAJwIb-221" vertex="1">
          <mxGeometry y="26" width="140" height="40" as="geometry" />
        </mxCell>
        <mxCell id="y7rmreXHusG0yKeAJwIb-223" value="2. Учебник" style="text;strokeColor=default;fillColor=#393E46;spacingLeft=10;spacingRight=0;overflow=hidden;rotatable=0;points=[[0,0.5],[1,0.5]];portConstraint=eastwest;fontSize=14;whiteSpace=wrap;html=1;strokeWidth=2;verticalAlign=middle;spacing=2;fontStyle=0;align=left;horizontal=1;fontColor=#FFFFFF;" parent="y7rmreXHusG0yKeAJwIb-221" vertex="1">
          <mxGeometry y="66" width="140" height="40" as="geometry" />
        </mxCell>
        <mxCell id="y7rmreXHusG0yKeAJwIb-224" value="3. Учебник" style="text;strokeColor=default;fillColor=#393E46;spacingLeft=10;spacingRight=0;overflow=hidden;rotatable=0;points=[[0,0.5],[1,0.5]];portConstraint=eastwest;fontSize=14;whiteSpace=wrap;html=1;strokeWidth=2;verticalAlign=middle;spacing=2;fontStyle=0;align=left;horizontal=1;fontColor=#FFFFFF;" parent="y7rmreXHusG0yKeAJwIb-221" vertex="1">
          <mxGeometry y="106" width="140" height="40" as="geometry" />
        </mxCell>
        <mxCell id="y7rmreXHusG0yKeAJwIb-225" value="4. Учебник" style="text;strokeColor=default;fillColor=#393E46;spacingLeft=10;spacingRight=0;overflow=hidden;rotatable=0;points=[[0,0.5],[1,0.5]];portConstraint=eastwest;fontSize=14;whiteSpace=wrap;html=1;strokeWidth=2;verticalAlign=middle;spacing=2;fontStyle=0;align=left;horizontal=1;fontColor=#FFFFFF;" parent="y7rmreXHusG0yKeAJwIb-221" vertex="1">
          <mxGeometry y="146" width="140" height="40" as="geometry" />
        </mxCell>
        <mxCell id="4ki5c7JBk0iLa5YtxHzF-64" value="" style="endArrow=classic;html=1;rounded=0;exitX=0.5;exitY=1;exitDx=0;exitDy=0;entryX=0.5;entryY=0;entryDx=0;entryDy=0;strokeWidth=3;fontStyle=1" edge="1" parent="1">
          <mxGeometry width="50" height="50" relative="1" as="geometry">
            <mxPoint x="599.6199999999999" y="147.5" as="sourcePoint" />
            <mxPoint x="599.6199999999999" y="197.5" as="targetPoint" />
          </mxGeometry>
        </mxCell>
        <mxCell id="4ki5c7JBk0iLa5YtxHzF-65" value="" style="endArrow=classic;html=1;rounded=0;exitX=0.5;exitY=1;exitDx=0;exitDy=0;entryX=0.5;entryY=0;entryDx=0;entryDy=0;strokeWidth=3;fontStyle=1" edge="1" parent="1">
          <mxGeometry width="50" height="50" relative="1" as="geometry">
            <mxPoint x="599.6300000000001" y="267.5" as="sourcePoint" />
            <mxPoint x="599.6300000000001" y="317.5" as="targetPoint" />
          </mxGeometry>
        </mxCell>
        <mxCell id="y7rmreXHusG0yKeAJwIb-189" value="Базы данных" style="swimlane;fontStyle=1;childLayout=stackLayout;horizontal=1;startSize=70;horizontalStack=0;resizeParent=1;resizeParentMax=0;resizeLast=0;collapsible=1;marginBottom=0;align=left;fontSize=18;fillColor=#B2DFDB;strokeWidth=2;rounded=0;verticalAlign=middle;spacingLeft=65;whiteSpace=wrap;" parent="1" vertex="1" collapsed="1">
          <mxGeometry x="1390" y="437.5" width="260" height="70" as="geometry">
            <mxRectangle x="2000" y="500" width="340" height="550" as="alternateBounds" />
          </mxGeometry>
        </mxCell>
        <mxCell id="y7rmreXHusG0yKeAJwIb-190" value="&lt;ol&gt;&lt;li&gt;Базы данных.&amp;nbsp;&lt;/li&gt;&lt;li&gt;Системы управления базами данными.&amp;nbsp;&lt;/li&gt;&lt;li&gt;Модель данных.&amp;nbsp;&lt;/li&gt;&lt;li&gt;Архитектура данных.&amp;nbsp;&lt;/li&gt;&lt;li&gt;Инфологическое моделирование.&amp;nbsp;&lt;/li&gt;&lt;li&gt;Предметная область.&lt;/li&gt;&lt;li&gt;Сущность.&amp;nbsp;&lt;/li&gt;&lt;li&gt;Связи.&amp;nbsp;&lt;/li&gt;&lt;li&gt;Диаграмма &quot;сущность-связь&quot;.&amp;nbsp;&lt;/li&gt;&lt;li&gt;Диаграмма потоков данных.&amp;nbsp;&lt;/li&gt;&lt;li&gt;Реляционная модель.&amp;nbsp;&lt;/li&gt;&lt;li&gt;Потенциальный ключ.&amp;nbsp;&lt;/li&gt;&lt;li&gt;Первичный ключ.&amp;nbsp;&lt;/li&gt;&lt;li&gt;Внешний ключ.&amp;nbsp;&lt;/li&gt;&lt;li&gt;Реляционная алгебра.&lt;/li&gt;&lt;li&gt;Функциональные зависимости.&amp;nbsp;&lt;/li&gt;&lt;li&gt;Замыкание, минимальное покрытие.&amp;nbsp;&lt;/li&gt;&lt;li&gt;Нормальные формы.&lt;/li&gt;&lt;li&gt;Ограничения целостности.&amp;nbsp;&lt;/li&gt;&lt;li&gt;SQL.&amp;nbsp;&lt;/li&gt;&lt;li&gt;Триггеры.&amp;nbsp;&lt;/li&gt;&lt;li&gt;Хранимые процедуры и функции.&amp;nbsp;&lt;/li&gt;&lt;li&gt;Представления.&lt;/li&gt;&lt;li&gt;Индексы.&amp;nbsp;&lt;/li&gt;&lt;li&gt;Курсоры.&amp;nbsp;&lt;/li&gt;&lt;li&gt;Транзакции.&amp;nbsp;&lt;/li&gt;&lt;li&gt;Доступ к данным.&lt;/li&gt;&lt;/ol&gt;" style="text;strokeColor=default;fillColor=#9BC2BE;spacingLeft=10;spacingRight=0;overflow=hidden;rotatable=0;points=[[0,0.5],[1,0.5]];portConstraint=eastwest;fontSize=14;whiteSpace=wrap;html=1;strokeWidth=2;verticalAlign=middle;spacing=2;fontStyle=1;align=left;horizontal=1;" parent="y7rmreXHusG0yKeAJwIb-189" vertex="1">
          <mxGeometry y="70" width="340" height="480" as="geometry" />
        </mxCell>
        <mxCell id="4ki5c7JBk0iLa5YtxHzF-75" value="" style="endArrow=classic;html=1;rounded=0;entryX=0.5;entryY=0;entryDx=0;entryDy=0;strokeWidth=3;fontStyle=1" edge="1" parent="1">
          <mxGeometry width="50" height="50" relative="1" as="geometry">
            <mxPoint x="1060" y="507.5" as="sourcePoint" />
            <mxPoint x="1059.58" y="557.5" as="targetPoint" />
          </mxGeometry>
        </mxCell>
        <mxCell id="4ki5c7JBk0iLa5YtxHzF-82" value="Протоколы &#xa;вычислительных сетей" style="swimlane;fontStyle=1;childLayout=stackLayout;horizontal=1;startSize=70;horizontalStack=0;resizeParent=1;resizeParentMax=0;resizeLast=0;collapsible=1;marginBottom=0;align=left;fontSize=18;fillColor=#FFE0B2;strokeWidth=2;rounded=0;verticalAlign=middle;spacingLeft=30;whiteSpace=wrap;" vertex="1" collapsed="1" parent="1">
          <mxGeometry x="470" y="797.5" width="260" height="70" as="geometry">
            <mxRectangle x="1080" y="860" width="460" height="240" as="alternateBounds" />
          </mxGeometry>
        </mxCell>
        <mxCell id="4ki5c7JBk0iLa5YtxHzF-83" value="&lt;ol&gt;&lt;li&gt;&lt;span style=&quot;background-color: initial;&quot;&gt;Основные понятия и определения.&amp;nbsp;&lt;/span&gt;&lt;/li&gt;&lt;li&gt;&lt;span style=&quot;background-color: initial;&quot;&gt;Логическая адресация версии 6.&lt;/span&gt;&lt;/li&gt;&lt;li&gt;&lt;span style=&quot;background-color: initial;&quot;&gt;Протоколы межсетевого уровня стека протокола TCP\IP.&amp;nbsp;&lt;/span&gt;&lt;/li&gt;&lt;li&gt;&lt;span style=&quot;background-color: initial;&quot;&gt;Протоколы прикладного уровня&amp;nbsp;&lt;/span&gt;модели OSI.&amp;nbsp;&lt;/li&gt;&lt;li&gt;Система доменных имен.&amp;nbsp;&lt;/li&gt;&lt;li&gt;Управляемое широковещание.&amp;nbsp;&lt;/li&gt;&lt;li&gt;Протоколы представления сервиса услуга на канальном уровне.&amp;nbsp;&lt;/li&gt;&lt;/ol&gt;" style="text;strokeColor=default;fillColor=#C7AF8B;spacingLeft=10;spacingRight=0;overflow=hidden;rotatable=0;points=[[0,0.5],[1,0.5]];portConstraint=eastwest;fontSize=14;whiteSpace=wrap;html=1;strokeWidth=2;verticalAlign=middle;spacing=2;fontStyle=1;align=left;horizontal=1;" vertex="1" parent="4ki5c7JBk0iLa5YtxHzF-82">
          <mxGeometry y="70" width="460" height="170" as="geometry" />
        </mxCell>
        <mxCell id="4ki5c7JBk0iLa5YtxHzF-86" value="1. Теория автоматов &#xa;2. Теория вычислительн.&#xa;процессов" style="swimlane;fontStyle=1;childLayout=stackLayout;horizontal=1;startSize=70;horizontalStack=0;resizeParent=1;resizeParentMax=0;resizeLast=0;collapsible=1;marginBottom=0;align=left;fontSize=18;fillColor=#C5CAE9;strokeWidth=2;rounded=0;verticalAlign=middle;spacingLeft=20;whiteSpace=wrap;" vertex="1" collapsed="1" parent="1">
          <mxGeometry x="930" y="677.5" width="260" height="70" as="geometry">
            <mxRectangle x="1540" y="740" width="430" height="460" as="alternateBounds" />
          </mxGeometry>
        </mxCell>
        <mxCell id="4ki5c7JBk0iLa5YtxHzF-87" value="&lt;div&gt;&lt;span style=&quot;font-size: 16px;&quot;&gt;Теория автоматов:&lt;/span&gt;&lt;/div&gt;&lt;ol style=&quot;font-size: 16px;&quot;&gt;&lt;li&gt;&lt;span style=&quot;background-color: initial;&quot;&gt;Введение в теорию автоматов.&amp;nbsp;&lt;/span&gt;&lt;/li&gt;&lt;li&gt;&lt;span style=&quot;background-color: initial;&quot;&gt;Алфавит.&amp;nbsp;&lt;/span&gt;&lt;/li&gt;&lt;li&gt;&lt;span style=&quot;background-color: initial;&quot;&gt;Языки.&amp;nbsp;&lt;/span&gt;&lt;/li&gt;&lt;li&gt;&lt;span style=&quot;background-color: initial;&quot;&gt;Конечные&amp;nbsp;&lt;/span&gt;автоматы.&amp;nbsp;&lt;/li&gt;&lt;li&gt;Регулярные выражения.&lt;/li&gt;&lt;li&gt;Грамматики иерархии Хомского.&amp;nbsp;&lt;/li&gt;&lt;li&gt;Автоматы с магазинной памятью.&amp;nbsp;&lt;/li&gt;&lt;li&gt;Цифровые автоматы.&amp;nbsp;&lt;/li&gt;&lt;li&gt;Микропрограммирование.&amp;nbsp;&lt;/li&gt;&lt;li&gt;Моделирование вычислительных процессов.&lt;/li&gt;&lt;/ol&gt;&lt;div&gt;&lt;span style=&quot;font-size: 16px;&quot;&gt;Теория вычислительных процессов:&lt;/span&gt;&lt;/div&gt;&lt;ol style=&quot;font-size: 16px;&quot;&gt;&lt;li&gt;Модели вычислительных процессов.&amp;nbsp;&lt;/li&gt;&lt;li&gt;Взаимодействие процессов.&lt;/li&gt;&lt;li&gt;Асинхронные процессы.&amp;nbsp;&lt;/li&gt;&lt;li&gt;Диаграммы переходов.&amp;nbsp;&lt;/li&gt;&lt;li&gt;Сети Петри.&lt;/li&gt;&lt;/ol&gt;" style="text;strokeColor=default;fillColor=#B8BCD9;spacingLeft=10;spacingRight=0;overflow=hidden;rotatable=0;points=[[0,0.5],[1,0.5]];portConstraint=eastwest;fontSize=14;whiteSpace=wrap;html=1;strokeWidth=2;verticalAlign=middle;spacing=2;fontStyle=1;align=left;horizontal=1;" vertex="1" parent="4ki5c7JBk0iLa5YtxHzF-86">
          <mxGeometry y="70" width="430" height="390" as="geometry" />
        </mxCell>
        <mxCell id="4ki5c7JBk0iLa5YtxHzF-88" value=" Литература:" style="swimlane;fontStyle=1;childLayout=stackLayout;horizontal=1;startSize=26;horizontalStack=0;resizeParent=1;resizeParentMax=0;resizeLast=0;collapsible=1;marginBottom=0;align=center;fontSize=18;strokeWidth=2;rounded=0;verticalAlign=middle;spacingLeft=10;whiteSpace=wrap;fillColor=#000000;strokeColor=default;fontColor=#FFFFFF;" vertex="1" collapsed="1" parent="1">
          <mxGeometry x="-590" y="557.5" width="140" height="25" as="geometry">
            <mxRectangle x="20" y="360" width="140" height="186" as="alternateBounds" />
          </mxGeometry>
        </mxCell>
        <mxCell id="4ki5c7JBk0iLa5YtxHzF-89" value="1. Учебник" style="text;strokeColor=default;fillColor=#393E46;spacingLeft=10;spacingRight=0;overflow=hidden;rotatable=0;points=[[0,0.5],[1,0.5]];portConstraint=eastwest;fontSize=14;whiteSpace=wrap;html=1;strokeWidth=2;verticalAlign=middle;spacing=2;fontStyle=0;align=left;horizontal=1;fontColor=#FFFFFF;" vertex="1" parent="4ki5c7JBk0iLa5YtxHzF-88">
          <mxGeometry y="26" width="140" height="40" as="geometry" />
        </mxCell>
        <mxCell id="4ki5c7JBk0iLa5YtxHzF-90" value="2. Учебник" style="text;strokeColor=default;fillColor=#393E46;spacingLeft=10;spacingRight=0;overflow=hidden;rotatable=0;points=[[0,0.5],[1,0.5]];portConstraint=eastwest;fontSize=14;whiteSpace=wrap;html=1;strokeWidth=2;verticalAlign=middle;spacing=2;fontStyle=0;align=left;horizontal=1;fontColor=#FFFFFF;" vertex="1" parent="4ki5c7JBk0iLa5YtxHzF-88">
          <mxGeometry y="66" width="140" height="40" as="geometry" />
        </mxCell>
        <mxCell id="4ki5c7JBk0iLa5YtxHzF-91" value="3. Учебник" style="text;strokeColor=default;fillColor=#393E46;spacingLeft=10;spacingRight=0;overflow=hidden;rotatable=0;points=[[0,0.5],[1,0.5]];portConstraint=eastwest;fontSize=14;whiteSpace=wrap;html=1;strokeWidth=2;verticalAlign=middle;spacing=2;fontStyle=0;align=left;horizontal=1;fontColor=#FFFFFF;" vertex="1" parent="4ki5c7JBk0iLa5YtxHzF-88">
          <mxGeometry y="106" width="140" height="40" as="geometry" />
        </mxCell>
        <mxCell id="4ki5c7JBk0iLa5YtxHzF-92" value="4. Учебник" style="text;strokeColor=default;fillColor=#393E46;spacingLeft=10;spacingRight=0;overflow=hidden;rotatable=0;points=[[0,0.5],[1,0.5]];portConstraint=eastwest;fontSize=14;whiteSpace=wrap;html=1;strokeWidth=2;verticalAlign=middle;spacing=2;fontStyle=0;align=left;horizontal=1;fontColor=#FFFFFF;" vertex="1" parent="4ki5c7JBk0iLa5YtxHzF-88">
          <mxGeometry y="146" width="140" height="40" as="geometry" />
        </mxCell>
        <mxCell id="4ki5c7JBk0iLa5YtxHzF-93" value=" Литература:" style="swimlane;fontStyle=1;childLayout=stackLayout;horizontal=1;startSize=26;horizontalStack=0;resizeParent=1;resizeParentMax=0;resizeLast=0;collapsible=1;marginBottom=0;align=center;fontSize=18;strokeWidth=2;rounded=0;verticalAlign=middle;spacingLeft=10;whiteSpace=wrap;fillColor=#000000;strokeColor=default;fontColor=#FFFFFF;" vertex="1" collapsed="1" parent="1">
          <mxGeometry x="-590" y="677.5" width="140" height="25" as="geometry">
            <mxRectangle x="20" y="360" width="140" height="186" as="alternateBounds" />
          </mxGeometry>
        </mxCell>
        <mxCell id="4ki5c7JBk0iLa5YtxHzF-94" value="1. Учебник" style="text;strokeColor=default;fillColor=#393E46;spacingLeft=10;spacingRight=0;overflow=hidden;rotatable=0;points=[[0,0.5],[1,0.5]];portConstraint=eastwest;fontSize=14;whiteSpace=wrap;html=1;strokeWidth=2;verticalAlign=middle;spacing=2;fontStyle=0;align=left;horizontal=1;fontColor=#FFFFFF;" vertex="1" parent="4ki5c7JBk0iLa5YtxHzF-93">
          <mxGeometry y="26" width="140" height="40" as="geometry" />
        </mxCell>
        <mxCell id="4ki5c7JBk0iLa5YtxHzF-95" value="2. Учебник" style="text;strokeColor=default;fillColor=#393E46;spacingLeft=10;spacingRight=0;overflow=hidden;rotatable=0;points=[[0,0.5],[1,0.5]];portConstraint=eastwest;fontSize=14;whiteSpace=wrap;html=1;strokeWidth=2;verticalAlign=middle;spacing=2;fontStyle=0;align=left;horizontal=1;fontColor=#FFFFFF;" vertex="1" parent="4ki5c7JBk0iLa5YtxHzF-93">
          <mxGeometry y="66" width="140" height="40" as="geometry" />
        </mxCell>
        <mxCell id="4ki5c7JBk0iLa5YtxHzF-96" value="3. Учебник" style="text;strokeColor=default;fillColor=#393E46;spacingLeft=10;spacingRight=0;overflow=hidden;rotatable=0;points=[[0,0.5],[1,0.5]];portConstraint=eastwest;fontSize=14;whiteSpace=wrap;html=1;strokeWidth=2;verticalAlign=middle;spacing=2;fontStyle=0;align=left;horizontal=1;fontColor=#FFFFFF;" vertex="1" parent="4ki5c7JBk0iLa5YtxHzF-93">
          <mxGeometry y="106" width="140" height="40" as="geometry" />
        </mxCell>
        <mxCell id="4ki5c7JBk0iLa5YtxHzF-97" value="4. Учебник" style="text;strokeColor=default;fillColor=#393E46;spacingLeft=10;spacingRight=0;overflow=hidden;rotatable=0;points=[[0,0.5],[1,0.5]];portConstraint=eastwest;fontSize=14;whiteSpace=wrap;html=1;strokeWidth=2;verticalAlign=middle;spacing=2;fontStyle=0;align=left;horizontal=1;fontColor=#FFFFFF;" vertex="1" parent="4ki5c7JBk0iLa5YtxHzF-93">
          <mxGeometry y="146" width="140" height="40" as="geometry" />
        </mxCell>
        <mxCell id="4ki5c7JBk0iLa5YtxHzF-106" value=" Литература:" style="swimlane;fontStyle=1;childLayout=stackLayout;horizontal=1;startSize=26;horizontalStack=0;resizeParent=1;resizeParentMax=0;resizeLast=0;collapsible=1;marginBottom=0;align=center;fontSize=18;strokeWidth=2;rounded=0;verticalAlign=middle;spacingLeft=10;whiteSpace=wrap;fillColor=#000000;strokeColor=default;fontColor=#FFFFFF;" vertex="1" collapsed="1" parent="1">
          <mxGeometry x="330" y="797.5" width="140" height="25" as="geometry">
            <mxRectangle x="20" y="360" width="140" height="186" as="alternateBounds" />
          </mxGeometry>
        </mxCell>
        <mxCell id="4ki5c7JBk0iLa5YtxHzF-107" value="1. Учебник" style="text;strokeColor=default;fillColor=#393E46;spacingLeft=10;spacingRight=0;overflow=hidden;rotatable=0;points=[[0,0.5],[1,0.5]];portConstraint=eastwest;fontSize=14;whiteSpace=wrap;html=1;strokeWidth=2;verticalAlign=middle;spacing=2;fontStyle=0;align=left;horizontal=1;fontColor=#FFFFFF;" vertex="1" parent="4ki5c7JBk0iLa5YtxHzF-106">
          <mxGeometry y="26" width="140" height="40" as="geometry" />
        </mxCell>
        <mxCell id="4ki5c7JBk0iLa5YtxHzF-108" value="2. Учебник" style="text;strokeColor=default;fillColor=#393E46;spacingLeft=10;spacingRight=0;overflow=hidden;rotatable=0;points=[[0,0.5],[1,0.5]];portConstraint=eastwest;fontSize=14;whiteSpace=wrap;html=1;strokeWidth=2;verticalAlign=middle;spacing=2;fontStyle=0;align=left;horizontal=1;fontColor=#FFFFFF;" vertex="1" parent="4ki5c7JBk0iLa5YtxHzF-106">
          <mxGeometry y="66" width="140" height="40" as="geometry" />
        </mxCell>
        <mxCell id="4ki5c7JBk0iLa5YtxHzF-109" value="3. Учебник" style="text;strokeColor=default;fillColor=#393E46;spacingLeft=10;spacingRight=0;overflow=hidden;rotatable=0;points=[[0,0.5],[1,0.5]];portConstraint=eastwest;fontSize=14;whiteSpace=wrap;html=1;strokeWidth=2;verticalAlign=middle;spacing=2;fontStyle=0;align=left;horizontal=1;fontColor=#FFFFFF;" vertex="1" parent="4ki5c7JBk0iLa5YtxHzF-106">
          <mxGeometry y="106" width="140" height="40" as="geometry" />
        </mxCell>
        <mxCell id="4ki5c7JBk0iLa5YtxHzF-110" value="4. Учебник" style="text;strokeColor=default;fillColor=#393E46;spacingLeft=10;spacingRight=0;overflow=hidden;rotatable=0;points=[[0,0.5],[1,0.5]];portConstraint=eastwest;fontSize=14;whiteSpace=wrap;html=1;strokeWidth=2;verticalAlign=middle;spacing=2;fontStyle=0;align=left;horizontal=1;fontColor=#FFFFFF;" vertex="1" parent="4ki5c7JBk0iLa5YtxHzF-106">
          <mxGeometry y="146" width="140" height="40" as="geometry" />
        </mxCell>
        <mxCell id="4ki5c7JBk0iLa5YtxHzF-111" value=" Литература:" style="swimlane;fontStyle=1;childLayout=stackLayout;horizontal=1;startSize=26;horizontalStack=0;resizeParent=1;resizeParentMax=0;resizeLast=0;collapsible=1;marginBottom=0;align=center;fontSize=18;strokeWidth=2;rounded=0;verticalAlign=middle;spacingLeft=10;whiteSpace=wrap;fillColor=#000000;strokeColor=default;fontColor=#FFFFFF;" vertex="1" collapsed="1" parent="1">
          <mxGeometry x="330" y="677.5" width="140" height="25" as="geometry">
            <mxRectangle x="20" y="360" width="140" height="186" as="alternateBounds" />
          </mxGeometry>
        </mxCell>
        <mxCell id="4ki5c7JBk0iLa5YtxHzF-112" value="1. Учебник" style="text;strokeColor=default;fillColor=#393E46;spacingLeft=10;spacingRight=0;overflow=hidden;rotatable=0;points=[[0,0.5],[1,0.5]];portConstraint=eastwest;fontSize=14;whiteSpace=wrap;html=1;strokeWidth=2;verticalAlign=middle;spacing=2;fontStyle=0;align=left;horizontal=1;fontColor=#FFFFFF;" vertex="1" parent="4ki5c7JBk0iLa5YtxHzF-111">
          <mxGeometry y="26" width="140" height="40" as="geometry" />
        </mxCell>
        <mxCell id="4ki5c7JBk0iLa5YtxHzF-113" value="2. Учебник" style="text;strokeColor=default;fillColor=#393E46;spacingLeft=10;spacingRight=0;overflow=hidden;rotatable=0;points=[[0,0.5],[1,0.5]];portConstraint=eastwest;fontSize=14;whiteSpace=wrap;html=1;strokeWidth=2;verticalAlign=middle;spacing=2;fontStyle=0;align=left;horizontal=1;fontColor=#FFFFFF;" vertex="1" parent="4ki5c7JBk0iLa5YtxHzF-111">
          <mxGeometry y="66" width="140" height="40" as="geometry" />
        </mxCell>
        <mxCell id="4ki5c7JBk0iLa5YtxHzF-114" value="3. Учебник" style="text;strokeColor=default;fillColor=#393E46;spacingLeft=10;spacingRight=0;overflow=hidden;rotatable=0;points=[[0,0.5],[1,0.5]];portConstraint=eastwest;fontSize=14;whiteSpace=wrap;html=1;strokeWidth=2;verticalAlign=middle;spacing=2;fontStyle=0;align=left;horizontal=1;fontColor=#FFFFFF;" vertex="1" parent="4ki5c7JBk0iLa5YtxHzF-111">
          <mxGeometry y="106" width="140" height="40" as="geometry" />
        </mxCell>
        <mxCell id="4ki5c7JBk0iLa5YtxHzF-115" value="4. Учебник" style="text;strokeColor=default;fillColor=#393E46;spacingLeft=10;spacingRight=0;overflow=hidden;rotatable=0;points=[[0,0.5],[1,0.5]];portConstraint=eastwest;fontSize=14;whiteSpace=wrap;html=1;strokeWidth=2;verticalAlign=middle;spacing=2;fontStyle=0;align=left;horizontal=1;fontColor=#FFFFFF;" vertex="1" parent="4ki5c7JBk0iLa5YtxHzF-111">
          <mxGeometry y="146" width="140" height="40" as="geometry" />
        </mxCell>
        <mxCell id="4ki5c7JBk0iLa5YtxHzF-116" value=" Литература:" style="swimlane;fontStyle=1;childLayout=stackLayout;horizontal=1;startSize=26;horizontalStack=0;resizeParent=1;resizeParentMax=0;resizeLast=0;collapsible=1;marginBottom=0;align=center;fontSize=18;strokeWidth=2;rounded=0;verticalAlign=middle;spacingLeft=10;whiteSpace=wrap;fillColor=#000000;strokeColor=default;fontColor=#FFFFFF;" vertex="1" collapsed="1" parent="1">
          <mxGeometry x="-130" y="677.5" width="140" height="25" as="geometry">
            <mxRectangle x="20" y="360" width="140" height="186" as="alternateBounds" />
          </mxGeometry>
        </mxCell>
        <mxCell id="4ki5c7JBk0iLa5YtxHzF-117" value="1. Учебник" style="text;strokeColor=default;fillColor=#393E46;spacingLeft=10;spacingRight=0;overflow=hidden;rotatable=0;points=[[0,0.5],[1,0.5]];portConstraint=eastwest;fontSize=14;whiteSpace=wrap;html=1;strokeWidth=2;verticalAlign=middle;spacing=2;fontStyle=0;align=left;horizontal=1;fontColor=#FFFFFF;" vertex="1" parent="4ki5c7JBk0iLa5YtxHzF-116">
          <mxGeometry y="26" width="140" height="40" as="geometry" />
        </mxCell>
        <mxCell id="4ki5c7JBk0iLa5YtxHzF-118" value="2. Учебник" style="text;strokeColor=default;fillColor=#393E46;spacingLeft=10;spacingRight=0;overflow=hidden;rotatable=0;points=[[0,0.5],[1,0.5]];portConstraint=eastwest;fontSize=14;whiteSpace=wrap;html=1;strokeWidth=2;verticalAlign=middle;spacing=2;fontStyle=0;align=left;horizontal=1;fontColor=#FFFFFF;" vertex="1" parent="4ki5c7JBk0iLa5YtxHzF-116">
          <mxGeometry y="66" width="140" height="40" as="geometry" />
        </mxCell>
        <mxCell id="4ki5c7JBk0iLa5YtxHzF-119" value="3. Учебник" style="text;strokeColor=default;fillColor=#393E46;spacingLeft=10;spacingRight=0;overflow=hidden;rotatable=0;points=[[0,0.5],[1,0.5]];portConstraint=eastwest;fontSize=14;whiteSpace=wrap;html=1;strokeWidth=2;verticalAlign=middle;spacing=2;fontStyle=0;align=left;horizontal=1;fontColor=#FFFFFF;" vertex="1" parent="4ki5c7JBk0iLa5YtxHzF-116">
          <mxGeometry y="106" width="140" height="40" as="geometry" />
        </mxCell>
        <mxCell id="4ki5c7JBk0iLa5YtxHzF-120" value="4. Учебник" style="text;strokeColor=default;fillColor=#393E46;spacingLeft=10;spacingRight=0;overflow=hidden;rotatable=0;points=[[0,0.5],[1,0.5]];portConstraint=eastwest;fontSize=14;whiteSpace=wrap;html=1;strokeWidth=2;verticalAlign=middle;spacing=2;fontStyle=0;align=left;horizontal=1;fontColor=#FFFFFF;" vertex="1" parent="4ki5c7JBk0iLa5YtxHzF-116">
          <mxGeometry y="146" width="140" height="40" as="geometry" />
        </mxCell>
        <mxCell id="4ki5c7JBk0iLa5YtxHzF-121" value=" Литература:" style="swimlane;fontStyle=1;childLayout=stackLayout;horizontal=1;startSize=26;horizontalStack=0;resizeParent=1;resizeParentMax=0;resizeLast=0;collapsible=1;marginBottom=0;align=center;fontSize=18;strokeWidth=2;rounded=0;verticalAlign=middle;spacingLeft=10;whiteSpace=wrap;fillColor=#000000;strokeColor=default;fontColor=#FFFFFF;" vertex="1" collapsed="1" parent="1">
          <mxGeometry x="790" y="677.5" width="140" height="25" as="geometry">
            <mxRectangle x="20" y="360" width="140" height="186" as="alternateBounds" />
          </mxGeometry>
        </mxCell>
        <mxCell id="4ki5c7JBk0iLa5YtxHzF-122" value="1. Учебник" style="text;strokeColor=default;fillColor=#393E46;spacingLeft=10;spacingRight=0;overflow=hidden;rotatable=0;points=[[0,0.5],[1,0.5]];portConstraint=eastwest;fontSize=14;whiteSpace=wrap;html=1;strokeWidth=2;verticalAlign=middle;spacing=2;fontStyle=0;align=left;horizontal=1;fontColor=#FFFFFF;" vertex="1" parent="4ki5c7JBk0iLa5YtxHzF-121">
          <mxGeometry y="26" width="140" height="40" as="geometry" />
        </mxCell>
        <mxCell id="4ki5c7JBk0iLa5YtxHzF-123" value="2. Учебник" style="text;strokeColor=default;fillColor=#393E46;spacingLeft=10;spacingRight=0;overflow=hidden;rotatable=0;points=[[0,0.5],[1,0.5]];portConstraint=eastwest;fontSize=14;whiteSpace=wrap;html=1;strokeWidth=2;verticalAlign=middle;spacing=2;fontStyle=0;align=left;horizontal=1;fontColor=#FFFFFF;" vertex="1" parent="4ki5c7JBk0iLa5YtxHzF-121">
          <mxGeometry y="66" width="140" height="40" as="geometry" />
        </mxCell>
        <mxCell id="4ki5c7JBk0iLa5YtxHzF-124" value="3. Учебник" style="text;strokeColor=default;fillColor=#393E46;spacingLeft=10;spacingRight=0;overflow=hidden;rotatable=0;points=[[0,0.5],[1,0.5]];portConstraint=eastwest;fontSize=14;whiteSpace=wrap;html=1;strokeWidth=2;verticalAlign=middle;spacing=2;fontStyle=0;align=left;horizontal=1;fontColor=#FFFFFF;" vertex="1" parent="4ki5c7JBk0iLa5YtxHzF-121">
          <mxGeometry y="106" width="140" height="40" as="geometry" />
        </mxCell>
        <mxCell id="4ki5c7JBk0iLa5YtxHzF-125" value="4. Учебник" style="text;strokeColor=default;fillColor=#393E46;spacingLeft=10;spacingRight=0;overflow=hidden;rotatable=0;points=[[0,0.5],[1,0.5]];portConstraint=eastwest;fontSize=14;whiteSpace=wrap;html=1;strokeWidth=2;verticalAlign=middle;spacing=2;fontStyle=0;align=left;horizontal=1;fontColor=#FFFFFF;" vertex="1" parent="4ki5c7JBk0iLa5YtxHzF-121">
          <mxGeometry y="146" width="140" height="40" as="geometry" />
        </mxCell>
        <mxCell id="4ki5c7JBk0iLa5YtxHzF-128" value=" Литература:" style="swimlane;fontStyle=1;childLayout=stackLayout;horizontal=1;startSize=26;horizontalStack=0;resizeParent=1;resizeParentMax=0;resizeLast=0;collapsible=1;marginBottom=0;align=center;fontSize=18;strokeWidth=2;rounded=0;verticalAlign=middle;spacingLeft=10;whiteSpace=wrap;fillColor=#000000;strokeColor=default;fontColor=#FFFFFF;" vertex="1" collapsed="1" parent="1">
          <mxGeometry x="790" y="557.5" width="140" height="25" as="geometry">
            <mxRectangle x="20" y="360" width="140" height="186" as="alternateBounds" />
          </mxGeometry>
        </mxCell>
        <mxCell id="4ki5c7JBk0iLa5YtxHzF-129" value="1. Учебник" style="text;strokeColor=default;fillColor=#393E46;spacingLeft=10;spacingRight=0;overflow=hidden;rotatable=0;points=[[0,0.5],[1,0.5]];portConstraint=eastwest;fontSize=14;whiteSpace=wrap;html=1;strokeWidth=2;verticalAlign=middle;spacing=2;fontStyle=0;align=left;horizontal=1;fontColor=#FFFFFF;" vertex="1" parent="4ki5c7JBk0iLa5YtxHzF-128">
          <mxGeometry y="26" width="140" height="40" as="geometry" />
        </mxCell>
        <mxCell id="4ki5c7JBk0iLa5YtxHzF-130" value="2. Учебник" style="text;strokeColor=default;fillColor=#393E46;spacingLeft=10;spacingRight=0;overflow=hidden;rotatable=0;points=[[0,0.5],[1,0.5]];portConstraint=eastwest;fontSize=14;whiteSpace=wrap;html=1;strokeWidth=2;verticalAlign=middle;spacing=2;fontStyle=0;align=left;horizontal=1;fontColor=#FFFFFF;" vertex="1" parent="4ki5c7JBk0iLa5YtxHzF-128">
          <mxGeometry y="66" width="140" height="40" as="geometry" />
        </mxCell>
        <mxCell id="4ki5c7JBk0iLa5YtxHzF-131" value="3. Учебник" style="text;strokeColor=default;fillColor=#393E46;spacingLeft=10;spacingRight=0;overflow=hidden;rotatable=0;points=[[0,0.5],[1,0.5]];portConstraint=eastwest;fontSize=14;whiteSpace=wrap;html=1;strokeWidth=2;verticalAlign=middle;spacing=2;fontStyle=0;align=left;horizontal=1;fontColor=#FFFFFF;" vertex="1" parent="4ki5c7JBk0iLa5YtxHzF-128">
          <mxGeometry y="106" width="140" height="40" as="geometry" />
        </mxCell>
        <mxCell id="4ki5c7JBk0iLa5YtxHzF-132" value="4. Учебник" style="text;strokeColor=default;fillColor=#393E46;spacingLeft=10;spacingRight=0;overflow=hidden;rotatable=0;points=[[0,0.5],[1,0.5]];portConstraint=eastwest;fontSize=14;whiteSpace=wrap;html=1;strokeWidth=2;verticalAlign=middle;spacing=2;fontStyle=0;align=left;horizontal=1;fontColor=#FFFFFF;" vertex="1" parent="4ki5c7JBk0iLa5YtxHzF-128">
          <mxGeometry y="146" width="140" height="40" as="geometry" />
        </mxCell>
        <mxCell id="4ki5c7JBk0iLa5YtxHzF-163" value=" Литература:" style="swimlane;fontStyle=1;childLayout=stackLayout;horizontal=1;startSize=26;horizontalStack=0;resizeParent=1;resizeParentMax=0;resizeLast=0;collapsible=1;marginBottom=0;align=center;fontSize=18;strokeWidth=2;rounded=0;verticalAlign=middle;spacingLeft=10;whiteSpace=wrap;fillColor=#000000;strokeColor=default;fontColor=#FFFFFF;" vertex="1" collapsed="1" parent="1">
          <mxGeometry x="330" y="557.5" width="140" height="25" as="geometry">
            <mxRectangle x="20" y="360" width="140" height="186" as="alternateBounds" />
          </mxGeometry>
        </mxCell>
        <mxCell id="4ki5c7JBk0iLa5YtxHzF-164" value="1. Учебник" style="text;strokeColor=default;fillColor=#393E46;spacingLeft=10;spacingRight=0;overflow=hidden;rotatable=0;points=[[0,0.5],[1,0.5]];portConstraint=eastwest;fontSize=14;whiteSpace=wrap;html=1;strokeWidth=2;verticalAlign=middle;spacing=2;fontStyle=0;align=left;horizontal=1;fontColor=#FFFFFF;" vertex="1" parent="4ki5c7JBk0iLa5YtxHzF-163">
          <mxGeometry y="26" width="140" height="40" as="geometry" />
        </mxCell>
        <mxCell id="4ki5c7JBk0iLa5YtxHzF-165" value="2. Учебник" style="text;strokeColor=default;fillColor=#393E46;spacingLeft=10;spacingRight=0;overflow=hidden;rotatable=0;points=[[0,0.5],[1,0.5]];portConstraint=eastwest;fontSize=14;whiteSpace=wrap;html=1;strokeWidth=2;verticalAlign=middle;spacing=2;fontStyle=0;align=left;horizontal=1;fontColor=#FFFFFF;" vertex="1" parent="4ki5c7JBk0iLa5YtxHzF-163">
          <mxGeometry y="66" width="140" height="40" as="geometry" />
        </mxCell>
        <mxCell id="4ki5c7JBk0iLa5YtxHzF-166" value="3. Учебник" style="text;strokeColor=default;fillColor=#393E46;spacingLeft=10;spacingRight=0;overflow=hidden;rotatable=0;points=[[0,0.5],[1,0.5]];portConstraint=eastwest;fontSize=14;whiteSpace=wrap;html=1;strokeWidth=2;verticalAlign=middle;spacing=2;fontStyle=0;align=left;horizontal=1;fontColor=#FFFFFF;" vertex="1" parent="4ki5c7JBk0iLa5YtxHzF-163">
          <mxGeometry y="106" width="140" height="40" as="geometry" />
        </mxCell>
        <mxCell id="4ki5c7JBk0iLa5YtxHzF-167" value="4. Учебник" style="text;strokeColor=default;fillColor=#393E46;spacingLeft=10;spacingRight=0;overflow=hidden;rotatable=0;points=[[0,0.5],[1,0.5]];portConstraint=eastwest;fontSize=14;whiteSpace=wrap;html=1;strokeWidth=2;verticalAlign=middle;spacing=2;fontStyle=0;align=left;horizontal=1;fontColor=#FFFFFF;" vertex="1" parent="4ki5c7JBk0iLa5YtxHzF-163">
          <mxGeometry y="146" width="140" height="40" as="geometry" />
        </mxCell>
        <mxCell id="4ki5c7JBk0iLa5YtxHzF-84" value="Архитектура &#xa;операционных систем" style="swimlane;fontStyle=1;childLayout=stackLayout;horizontal=1;startSize=70;horizontalStack=0;resizeParent=1;resizeParentMax=0;resizeLast=0;collapsible=1;marginBottom=0;align=left;fontSize=18;fillColor=#D7CCC8;strokeWidth=2;rounded=0;verticalAlign=middle;spacingLeft=40;whiteSpace=wrap;" vertex="1" collapsed="1" parent="1">
          <mxGeometry x="-450" y="677.5" width="260" height="70" as="geometry">
            <mxRectangle x="160" y="740" width="420" height="470" as="alternateBounds" />
          </mxGeometry>
        </mxCell>
        <mxCell id="4ki5c7JBk0iLa5YtxHzF-85" value="&lt;ol&gt;&lt;li&gt;&lt;span style=&quot;background-color: initial;&quot;&gt;Архитектура ОС Windows, UNIX.&amp;nbsp;&lt;/span&gt;&lt;/li&gt;&lt;li&gt;&lt;span style=&quot;background-color: initial;&quot;&gt;Архитектура классической ОС&amp;nbsp;&lt;/span&gt;семейства UNIX.&amp;nbsp;&lt;/li&gt;&lt;li&gt;Управление памятью в Windows и UNIX-подобных операционных системах.&lt;/li&gt;&lt;li&gt;&lt;span style=&quot;background-color: initial;&quot;&gt;Виртуальное адресное пространство процесса.&amp;nbsp;&lt;/span&gt;&lt;/li&gt;&lt;li&gt;&lt;span style=&quot;background-color: initial;&quot;&gt;Стратегия ОС для виртуальной памяти.&lt;/span&gt;&lt;/li&gt;&lt;li&gt;&lt;span style=&quot;background-color: initial;&quot;&gt;Управление памятью в Windows.&amp;nbsp;&lt;/span&gt;&lt;/li&gt;&lt;li&gt;&lt;span style=&quot;background-color: initial;&quot;&gt;Управление память в UNIX.&amp;nbsp;&lt;/span&gt;&lt;/li&gt;&lt;li&gt;&lt;span style=&quot;background-color: initial;&quot;&gt;Защита в ОС Windows.&amp;nbsp;&lt;/span&gt;&lt;/li&gt;&lt;li&gt;&lt;span style=&quot;background-color: initial;&quot;&gt;Защита в&amp;nbsp;&lt;/span&gt;ОС семейства UNIX.&amp;nbsp;&lt;/li&gt;&lt;li&gt;Компоненты системы защиты.&amp;nbsp;&lt;/li&gt;&lt;li&gt;Структуры данных.&amp;nbsp;&lt;/li&gt;&lt;li&gt;Связанные с защитой.&lt;/li&gt;&lt;li&gt;&lt;span style=&quot;background-color: initial;&quot;&gt;Подсистема ввода-вывода.&amp;nbsp;&lt;/span&gt;&lt;/li&gt;&lt;li&gt;&lt;span style=&quot;background-color: initial;&quot;&gt;Компоненты подсистемы ввода-вывода.&amp;nbsp;&lt;/span&gt;&lt;/li&gt;&lt;li&gt;&lt;span style=&quot;background-color: initial;&quot;&gt;Структуры данных.&lt;/span&gt;&lt;/li&gt;&lt;li&gt;&lt;span style=&quot;background-color: initial;&quot;&gt;Связанные с вводом-выводом.&amp;nbsp;&lt;/span&gt;&lt;/li&gt;&lt;li&gt;&lt;span style=&quot;background-color: initial;&quot;&gt;Запуск работы системы Windows.&amp;nbsp;&lt;/span&gt;&lt;/li&gt;&lt;li&gt;&lt;span style=&quot;background-color: initial;&quot;&gt;Запуск работы системы UNIX.&lt;/span&gt;&lt;/li&gt;&lt;li&gt;&lt;span style=&quot;background-color: initial;&quot;&gt;операционные системы реального времени.&lt;/span&gt;&lt;/li&gt;&lt;/ol&gt;" style="text;strokeColor=default;fillColor=#A69D9A;spacingLeft=10;spacingRight=0;overflow=hidden;rotatable=0;points=[[0,0.5],[1,0.5]];portConstraint=eastwest;fontSize=14;whiteSpace=wrap;html=1;strokeWidth=2;verticalAlign=middle;spacing=2;fontStyle=1;align=left;horizontal=1;" vertex="1" parent="4ki5c7JBk0iLa5YtxHzF-84">
          <mxGeometry y="70" width="420" height="400" as="geometry" />
        </mxCell>
        <mxCell id="4ki5c7JBk0iLa5YtxHzF-80" value="Компьютерная графика" style="swimlane;fontStyle=1;childLayout=stackLayout;horizontal=1;startSize=70;horizontalStack=0;resizeParent=1;resizeParentMax=0;resizeLast=0;collapsible=1;marginBottom=0;align=left;fontSize=18;fillColor=#D1C4E9;strokeWidth=2;rounded=0;verticalAlign=middle;spacingLeft=25;whiteSpace=wrap;" vertex="1" collapsed="1" parent="1">
          <mxGeometry x="10" y="677.5" width="260" height="70" as="geometry">
            <mxRectangle x="620" y="740" width="500" height="310" as="alternateBounds" />
          </mxGeometry>
        </mxCell>
        <mxCell id="4ki5c7JBk0iLa5YtxHzF-81" value="&lt;ol&gt;&lt;li&gt;&lt;span style=&quot;background-color: initial;&quot;&gt;Предмет машинной графики, геометрическое моделирование и&amp;nbsp;&lt;/span&gt;решаемые им задачи.&amp;nbsp;&lt;/li&gt;&lt;li&gt;&lt;span style=&quot;background-color: initial;&quot;&gt;Представление видеоинформации и ее машинная генерация.&lt;/span&gt;&lt;/li&gt;&lt;li&gt;&lt;span style=&quot;background-color: initial;&quot;&gt;Архитектура графических терминалов и рабочих станций.&amp;nbsp;&lt;/span&gt;&lt;/li&gt;&lt;li&gt;&lt;span style=&quot;background-color: initial;&quot;&gt;Современные стандарты&amp;nbsp;&lt;/span&gt;компьютерной графики.&amp;nbsp;&lt;/li&gt;&lt;li&gt;Базовая графика.&amp;nbsp;&lt;/li&gt;&lt;li&gt;Реализация аппаратно-программных модулей графической системы.&amp;nbsp;&lt;/li&gt;&lt;li&gt;Графические языки.&amp;nbsp;&lt;/li&gt;&lt;li&gt;Метафайлы.&amp;nbsp;&lt;/li&gt;&lt;li&gt;Графические диалоговые системы.&lt;/li&gt;&lt;li&gt;&lt;span style=&quot;background-color: initial;&quot;&gt;Применение интерактивных графических систем.&lt;/span&gt;&lt;/li&gt;&lt;/ol&gt;" style="text;strokeColor=default;fillColor=#A99FBD;spacingLeft=10;spacingRight=0;overflow=hidden;rotatable=0;points=[[0,0.5],[1,0.5]];portConstraint=eastwest;fontSize=14;whiteSpace=wrap;html=1;strokeWidth=2;verticalAlign=middle;spacing=2;fontStyle=1;align=left;horizontal=1;" vertex="1" parent="4ki5c7JBk0iLa5YtxHzF-80">
          <mxGeometry y="70" width="500" height="240" as="geometry" />
        </mxCell>
        <mxCell id="4ki5c7JBk0iLa5YtxHzF-77" value="Вычислительные&#xa;системы, сети и &#xa;телекоммуникации" style="swimlane;fontStyle=1;childLayout=stackLayout;horizontal=1;startSize=70;horizontalStack=0;resizeParent=1;resizeParentMax=0;resizeLast=0;collapsible=1;marginBottom=0;align=left;fontSize=18;fillColor=#FFE0B2;strokeWidth=2;rounded=0;verticalAlign=middle;spacingLeft=40;whiteSpace=wrap;" vertex="1" collapsed="1" parent="1">
          <mxGeometry x="470" y="677.5" width="260" height="70" as="geometry">
            <mxRectangle x="1080" y="740" width="440" height="300" as="alternateBounds" />
          </mxGeometry>
        </mxCell>
        <mxCell id="4ki5c7JBk0iLa5YtxHzF-78" value="&lt;ol&gt;&lt;li&gt;&lt;span style=&quot;background-color: initial;&quot;&gt;Историческая справка появления, развития и становления&amp;nbsp;&lt;/span&gt;вычислительных сетей.&amp;nbsp;&lt;/li&gt;&lt;li&gt;Концепция вычислительных сетей.&amp;nbsp;&lt;/li&gt;&lt;li&gt;Уровни эталонной модели взаимодействия открытых систем.&amp;nbsp;&lt;/li&gt;&lt;li&gt;Приводится Технологии физического уровня.&amp;nbsp;&lt;/li&gt;&lt;li&gt;Протоколы канального уровня.&amp;nbsp;&lt;/li&gt;&lt;li&gt;Подуровень LLC.&amp;nbsp;&lt;/li&gt;&lt;li&gt;Протоколы сетевого уровня.&amp;nbsp;&lt;/li&gt;&lt;li&gt;Протоколы канального уровня.&amp;nbsp;&lt;/li&gt;&lt;li&gt;Физическая и логическая адресация.&amp;nbsp;&lt;/li&gt;&lt;li&gt;Методы вещания.&lt;/li&gt;&lt;/ol&gt;" style="text;strokeColor=default;fillColor=#C7AF8B;spacingLeft=10;spacingRight=0;overflow=hidden;rotatable=0;points=[[0,0.5],[1,0.5]];portConstraint=eastwest;fontSize=14;whiteSpace=wrap;html=1;strokeWidth=2;verticalAlign=middle;spacing=2;fontStyle=1;align=left;horizontal=1;" vertex="1" parent="4ki5c7JBk0iLa5YtxHzF-77">
          <mxGeometry y="70" width="440" height="230" as="geometry" />
        </mxCell>
        <mxCell id="4ki5c7JBk0iLa5YtxHzF-73" value="&#xa;Архитектура ЭВМ&#xa;&#xa;" style="swimlane;fontStyle=1;childLayout=stackLayout;horizontal=1;startSize=70;horizontalStack=0;resizeParent=1;resizeParentMax=0;resizeLast=0;collapsible=1;marginBottom=0;align=left;fontSize=18;fillColor=#FFF9C4;strokeWidth=2;rounded=0;verticalAlign=middle;spacingLeft=45;whiteSpace=wrap;" vertex="1" collapsed="1" parent="1">
          <mxGeometry x="930" y="557.5" width="260" height="70" as="geometry">
            <mxRectangle x="1540" y="620" width="440" height="280" as="alternateBounds" />
          </mxGeometry>
        </mxCell>
        <mxCell id="4ki5c7JBk0iLa5YtxHzF-74" value="&lt;ol&gt;&lt;li&gt;&lt;span style=&quot;background-color: initial;&quot;&gt;Особенности аппаратной и программной архитектуры современных&amp;nbsp;&lt;/span&gt;ЭВМ.&amp;nbsp;&lt;/li&gt;&lt;li&gt;Основные типы архитектур ЭВМ.&amp;nbsp;&lt;/li&gt;&lt;li&gt;Логическая организация центрального процессора и вычислительного процесса.&amp;nbsp;&lt;/li&gt;&lt;li&gt;Цикл выполнения команды.&amp;nbsp;&lt;/li&gt;&lt;li&gt;Организация прерываний.&amp;nbsp;&lt;/li&gt;&lt;li&gt;Способы повышения быстродействия процессора.&amp;nbsp;&lt;/li&gt;&lt;li&gt;Логическая организация памяти ЭВМ.&amp;nbsp;&lt;/li&gt;&lt;li&gt;Организация параллельных вычислений.&lt;/li&gt;&lt;/ol&gt;" style="text;strokeColor=default;fillColor=#D4CFA3;spacingLeft=10;spacingRight=0;overflow=hidden;rotatable=0;points=[[0,0.5],[1,0.5]];portConstraint=eastwest;fontSize=14;whiteSpace=wrap;html=1;strokeWidth=2;verticalAlign=middle;spacing=2;fontStyle=1;align=left;horizontal=1;" vertex="1" parent="4ki5c7JBk0iLa5YtxHzF-73">
          <mxGeometry y="70" width="440" height="210" as="geometry" />
        </mxCell>
        <mxCell id="4ki5c7JBk0iLa5YtxHzF-161" value="Технология WEB-&#xa;программирования" style="swimlane;fontStyle=1;childLayout=stackLayout;horizontal=1;startSize=70;horizontalStack=0;resizeParent=1;resizeParentMax=0;resizeLast=0;collapsible=1;marginBottom=0;align=left;fontSize=18;fillColor=#C5CAE9;strokeWidth=2;rounded=0;verticalAlign=middle;spacingLeft=20;whiteSpace=wrap;" vertex="1" collapsed="1" parent="1">
          <mxGeometry x="470" y="557.5" width="260" height="70" as="geometry">
            <mxRectangle x="1080" y="620" width="590" height="590" as="alternateBounds" />
          </mxGeometry>
        </mxCell>
        <mxCell id="4ki5c7JBk0iLa5YtxHzF-162" value="&lt;ol&gt;&lt;li&gt;Общие принципы работы WEB-приложений.&amp;nbsp;&lt;/li&gt;&lt;li&gt;Протокол HTTP.&lt;/li&gt;&lt;li&gt;Заголовки запросов и ответов.&amp;nbsp;&lt;/li&gt;&lt;li&gt;Структура HTML документа, тэги.&amp;nbsp;&lt;/li&gt;&lt;li&gt;Добавление текста, картинок, ссылок, таблиц и форм на HTML-страницу.&amp;nbsp;&lt;/li&gt;&lt;li&gt;Размещение объектов на странице, оформление объектов с помощью CSS.&amp;nbsp;&lt;/li&gt;&lt;li&gt;Синтаксис языка JavaScript, типы данных, операторы, объекты.&amp;nbsp;&lt;/li&gt;&lt;li&gt;Объектная модель Браузера (BOM).&amp;nbsp;&lt;/li&gt;&lt;li&gt;Объектная модель документа (DOM).&amp;nbsp;&lt;/li&gt;&lt;li&gt;Манипулирование объектами BOM и DOM с помощью языка JavaScript.&amp;nbsp;&lt;/li&gt;&lt;li&gt;Формат данных json и XML.&amp;nbsp;&lt;/li&gt;&lt;li&gt;Создание асинхронных HTTP-запросов AJAX.&amp;nbsp;&lt;/li&gt;&lt;li&gt;Библиотека jQuery.&amp;nbsp;&lt;/li&gt;&lt;li&gt;Синтаксис языка PHP, типы данных, операторы.&amp;nbsp;&lt;/li&gt;&lt;li&gt;Создание серверных скриптов на языке PHP.&amp;nbsp;&lt;/li&gt;&lt;li&gt;Взаимодействие PHP-скриптов с WEB-сервером.&amp;nbsp;&lt;/li&gt;&lt;li&gt;Получение данных от браузера.&amp;nbsp;&lt;/li&gt;&lt;li&gt;Cookies.&amp;nbsp;&lt;/li&gt;&lt;li&gt;Сессии.&lt;/li&gt;&lt;li&gt;Взаимодействие скриптов PHP с СУБД и файловой системой.&amp;nbsp;&lt;/li&gt;&lt;li&gt;Синтаксис языка Java, типы данных, операторы, объектная модель.&amp;nbsp;&lt;/li&gt;&lt;li&gt;Библиотеки java.lang, java.util, java.io.&amp;nbsp;&lt;/li&gt;&lt;li&gt;Многопоточное программирование на Java.&amp;nbsp;&lt;/li&gt;&lt;li&gt;Создание Java-сервлетов.&lt;/li&gt;&lt;li&gt;Безопасность WEB-приложений.&amp;nbsp;&lt;/li&gt;&lt;li&gt;Протокол HTTPS.&amp;nbsp;&lt;/li&gt;&lt;li&gt;Оптимизация сайта для поисковых систем (SEO).&amp;nbsp;&lt;/li&gt;&lt;li&gt;Интернет-коммерция, интеграция услуг эквайринга на сайт&lt;br&gt;&lt;/li&gt;&lt;/ol&gt;" style="text;strokeColor=default;fillColor=#B8BCD9;spacingLeft=10;spacingRight=0;overflow=hidden;rotatable=0;points=[[0,0.5],[1,0.5]];portConstraint=eastwest;fontSize=14;whiteSpace=wrap;html=1;strokeWidth=2;verticalAlign=middle;spacing=2;fontStyle=1;align=left;horizontal=1;" vertex="1" parent="4ki5c7JBk0iLa5YtxHzF-161">
          <mxGeometry y="70" width="590" height="520" as="geometry" />
        </mxCell>
        <mxCell id="y7rmreXHusG0yKeAJwIb-87" value="Структуры и алгоритмы &#xa;обработки данных" style="swimlane;fontStyle=1;childLayout=stackLayout;horizontal=1;startSize=190;horizontalStack=0;resizeParent=1;resizeParentMax=0;resizeLast=0;collapsible=1;marginBottom=0;align=left;fontSize=18;fillColor=#C5CAE9;strokeWidth=2;rounded=0;verticalAlign=middle;spacingLeft=20;whiteSpace=wrap;" parent="1" vertex="1" collapsed="1">
          <mxGeometry x="10" y="437.5" width="260" height="190" as="geometry">
            <mxRectangle x="620" y="500" width="360" height="470" as="alternateBounds" />
          </mxGeometry>
        </mxCell>
        <mxCell id="y7rmreXHusG0yKeAJwIb-94" value="&lt;ol&gt;&lt;li&gt;Абстрактные типы данных.&amp;nbsp;&lt;/li&gt;&lt;li&gt;Алгоритмы.&amp;nbsp;&lt;/li&gt;&lt;li&gt;Сложность алгоритмов.&lt;/li&gt;&lt;li&gt;Рекурсия.&amp;nbsp;&lt;/li&gt;&lt;li&gt;Алгоритмы поиска, сортировки.&amp;nbsp;&lt;/li&gt;&lt;li&gt;Множество.&amp;nbsp;&lt;/li&gt;&lt;li&gt;Связанные списки.&amp;nbsp;&lt;/li&gt;&lt;li&gt;Бинарные деревья, алгоритмы обхода.&amp;nbsp;&lt;/li&gt;&lt;li&gt;Сбалансированные деревья.&amp;nbsp;&lt;/li&gt;&lt;li&gt;Хеширование.&amp;nbsp;&lt;/li&gt;&lt;li&gt;Графы.&amp;nbsp;&lt;/li&gt;&lt;li&gt;Алгоритмы на графах.&lt;/li&gt;&lt;li&gt;Алгоритмы работы с внешней памятью.&amp;nbsp;&lt;/li&gt;&lt;li&gt;NP-полные задачи.&lt;/li&gt;&lt;/ol&gt;" style="text;strokeColor=default;fillColor=#B8BCD9;spacingLeft=10;spacingRight=0;overflow=hidden;rotatable=0;points=[[0,0.5],[1,0.5]];portConstraint=eastwest;fontSize=14;whiteSpace=wrap;html=1;strokeWidth=2;verticalAlign=middle;spacing=2;fontStyle=1;align=left;horizontal=1;" parent="y7rmreXHusG0yKeAJwIb-87" vertex="1">
          <mxGeometry y="190" width="360" height="280" as="geometry" />
        </mxCell>
        <mxCell id="4ki5c7JBk0iLa5YtxHzF-68" value="Операционные &#xa;системы" style="swimlane;fontStyle=1;childLayout=stackLayout;horizontal=1;startSize=70;horizontalStack=0;resizeParent=1;resizeParentMax=0;resizeLast=0;collapsible=1;marginBottom=0;align=left;fontSize=18;fillColor=#D7CCC8;strokeWidth=2;rounded=0;verticalAlign=middle;spacingLeft=40;whiteSpace=wrap;" vertex="1" collapsed="1" parent="1">
          <mxGeometry x="-450" y="557.5" width="260" height="70" as="geometry">
            <mxRectangle x="160" y="620" width="500" height="470" as="alternateBounds" />
          </mxGeometry>
        </mxCell>
        <mxCell id="4ki5c7JBk0iLa5YtxHzF-69" value="&lt;ol&gt;&lt;li&gt;Назначение и функции ОС;&amp;nbsp;&lt;/li&gt;&lt;li&gt;Классификация ОС;&amp;nbsp;&lt;/li&gt;&lt;li&gt;Обзор ОС;&amp;nbsp;&lt;/li&gt;&lt;li&gt;Понятие процесса, планирование в ОС, адресация в ОС, ввод-вывод;&amp;nbsp;&lt;/li&gt;&lt;li&gt;Понятие процесса;&amp;nbsp;&lt;/li&gt;&lt;li&gt;Процессы и потоки в Windows и UNIX;&amp;nbsp;&lt;/li&gt;&lt;li&gt;Структура управления процессами;&amp;nbsp;&lt;/li&gt;&lt;li&gt;Процессы и потоки;&amp;nbsp;&lt;/li&gt;&lt;li&gt;Потоки на пользовательском уровне и на уровне ядра;&amp;nbsp;&lt;/li&gt;&lt;li&gt;Средства коммуникации процессов;&amp;nbsp;&lt;/li&gt;&lt;li&gt;Планирование в системах с одним процессором, многопроцессорное планирование, планирование реального времени;&amp;nbsp;&lt;/li&gt;&lt;li&gt;Виды планирования;&amp;nbsp;&lt;/li&gt;&lt;li&gt;Стратегии планирования;&amp;nbsp;&lt;/li&gt;&lt;li&gt;Планирование потоков в ОС Windows и ОС UNIX;&amp;nbsp;&lt;/li&gt;&lt;li&gt;Понятие синхронизации;&amp;nbsp;&lt;/li&gt;&lt;li&gt;Синхронизация в Windows и UNIX;&amp;nbsp;&lt;/li&gt;&lt;li&gt;Классические проблемы межпроцессорного взаимодействия;&amp;nbsp;&lt;/li&gt;&lt;li&gt;Синхронизация потоков в пользовательском режиме;&amp;nbsp;&lt;/li&gt;&lt;li&gt;Синхронизация потоков с использованием объектов ядра.&lt;/li&gt;&lt;/ol&gt;" style="text;strokeColor=default;fillColor=#A69D9A;spacingLeft=10;spacingRight=0;overflow=hidden;rotatable=0;points=[[0,0.5],[1,0.5]];portConstraint=eastwest;fontSize=14;whiteSpace=wrap;html=1;strokeWidth=2;verticalAlign=middle;spacing=2;fontStyle=1;align=left;horizontal=1;" vertex="1" parent="4ki5c7JBk0iLa5YtxHzF-68">
          <mxGeometry y="70" width="500" height="400" as="geometry" />
        </mxCell>
        <mxCell id="y7rmreXHusG0yKeAJwIb-219" value="&#xa;Организация ЭВМ и систем&#xa;&#xa;" style="swimlane;fontStyle=1;childLayout=stackLayout;horizontal=1;startSize=70;horizontalStack=0;resizeParent=1;resizeParentMax=0;resizeLast=0;collapsible=1;marginBottom=0;align=left;fontSize=18;fillColor=#FFF9C4;strokeWidth=2;rounded=0;verticalAlign=middle;spacingLeft=10;whiteSpace=wrap;" parent="1" vertex="1" collapsed="1">
          <mxGeometry x="930" y="437.5" width="260" height="70" as="geometry">
            <mxRectangle x="1540" y="500" width="420" height="250" as="alternateBounds" />
          </mxGeometry>
        </mxCell>
        <mxCell id="y7rmreXHusG0yKeAJwIb-220" value="&lt;ol&gt;&lt;li&gt;Эволюция средств автоматизации вычислений.&amp;nbsp;&lt;/li&gt;&lt;li&gt;Основные характеристики и классификация ЭВМ.&amp;nbsp;&lt;/li&gt;&lt;li&gt;Арифметические основы ЭВМ.&amp;nbsp;&lt;/li&gt;&lt;li&gt;Элементная база ЭВМ.&lt;/li&gt;&lt;li&gt;Обобщенная структура ЭВМ.&amp;nbsp;&lt;/li&gt;&lt;li&gt;Назначение и состав центрального процессора.&amp;nbsp;&lt;/li&gt;&lt;li&gt;Физическая организация памяти ЭВМ.&amp;nbsp;&lt;/li&gt;&lt;li&gt;Параллельные вычислительные системы.&lt;/li&gt;&lt;/ol&gt;" style="text;strokeColor=default;fillColor=#D4CFA3;spacingLeft=10;spacingRight=0;overflow=hidden;rotatable=0;points=[[0,0.5],[1,0.5]];portConstraint=eastwest;fontSize=14;whiteSpace=wrap;html=1;strokeWidth=2;verticalAlign=middle;spacing=2;fontStyle=1;align=left;horizontal=1;" parent="y7rmreXHusG0yKeAJwIb-219" vertex="1">
          <mxGeometry y="70" width="420" height="180" as="geometry" />
        </mxCell>
        <mxCell id="4ZT7yi2DUqxVnpLDydQl-122" value="Вычислительная &#xa;     математика" style="swimlane;fontStyle=1;childLayout=stackLayout;horizontal=1;startSize=190;horizontalStack=0;resizeParent=1;resizeParentMax=0;resizeLast=0;collapsible=1;marginBottom=0;align=left;fontSize=18;fillColor=#F8BBD0;strokeWidth=2;rounded=0;verticalAlign=middle;spacingLeft=50;" parent="1" vertex="1" collapsed="1">
          <mxGeometry x="470" y="317.5" width="260" height="190" as="geometry">
            <mxRectangle x="1080" y="380" width="870" height="1180" as="alternateBounds" />
          </mxGeometry>
        </mxCell>
        <mxCell id="4ZT7yi2DUqxVnpLDydQl-123" value="Тема 1. Элементы теории погрешностей.&lt;br style=&quot;border-color: var(--border-color); font-family: Verdana; font-size: 16px;&quot;&gt;&lt;span style=&quot;border-color: var(--border-color); font-family: Verdana; font-size: 16px; font-weight: normal;&quot;&gt;1.1. Виды погрешностей.&lt;br style=&quot;border-color: var(--border-color);&quot;&gt;1.2. Значащие и верные цифры числа.&lt;br style=&quot;border-color: var(--border-color);&quot;&gt;1.3. Погрешности арифметических операций.&lt;br style=&quot;border-color: var(--border-color);&quot;&gt;1.4. Погрешности функции.&lt;br style=&quot;border-color: var(--border-color);&quot;&gt;&lt;/span&gt;&lt;br style=&quot;border-color: var(--border-color); font-family: Verdana; font-size: 16px;&quot;&gt;&lt;span style=&quot;font-family: Verdana; font-size: 16px;&quot;&gt;Тема 2. Решение систем линейных алгебраических уравнений.&lt;/span&gt;&lt;br style=&quot;border-color: var(--border-color); font-family: Verdana; font-size: 16px;&quot;&gt;&lt;span style=&quot;border-color: var(--border-color); font-family: Verdana; font-size: 16px; font-weight: normal;&quot;&gt;2.1. Метод Гаусса и Жордана-Гаусса.&lt;br style=&quot;border-color: var(--border-color);&quot;&gt;2.2. Метод Халецкого.&lt;br style=&quot;border-color: var(--border-color);&quot;&gt;2.3. Метод простых итераций и метод Зейделя.&lt;br style=&quot;border-color: var(--border-color);&quot;&gt;&lt;/span&gt;&lt;br style=&quot;border-color: var(--border-color); font-family: Verdana; font-size: 16px;&quot;&gt;&lt;span style=&quot;font-family: Verdana; font-size: 16px;&quot;&gt;Тема 3. Вычисление обратной матрицы.&lt;/span&gt;&lt;br style=&quot;border-color: var(--border-color); font-family: Verdana; font-size: 16px;&quot;&gt;&lt;span style=&quot;border-color: var(--border-color); font-family: Verdana; font-size: 16px; font-weight: normal;&quot;&gt;3.1. Обращение матрицы путём её разложения в произведение треугольных матриц.&lt;br style=&quot;border-color: var(--border-color);&quot;&gt;3.2. Обращение матрицы её разделением на блоки.&lt;br style=&quot;border-color: var(--border-color);&quot;&gt;&lt;/span&gt;&lt;br style=&quot;border-color: var(--border-color); font-family: Verdana; font-size: 16px;&quot;&gt;&lt;span style=&quot;font-family: Verdana; font-size: 16px;&quot;&gt;Тема 4. Решение нелинейных уравнений и их систем.&lt;/span&gt;&lt;br style=&quot;border-color: var(--border-color); font-family: Verdana; font-size: 16px;&quot;&gt;&lt;span style=&quot;border-color: var(--border-color); font-family: Verdana; font-size: 16px; font-weight: normal;&quot;&gt;4.1. Локализация корней.&lt;br style=&quot;border-color: var(--border-color);&quot;&gt;4.2. Методы уточнения корней: половинного деления, золотого сечения, хорд, касательных,&lt;br style=&quot;border-color: var(--border-color);&quot;&gt;комбинированный метод хорд и касательных, простых итераций.&lt;br style=&quot;border-color: var(--border-color);&quot;&gt;4.3. Метод простых итераций решения систем уравнений.&lt;br style=&quot;border-color: var(--border-color);&quot;&gt;&lt;/span&gt;&lt;br style=&quot;border-color: var(--border-color); font-family: Verdana; font-size: 16px;&quot;&gt;&lt;span style=&quot;font-family: Verdana; font-size: 16px;&quot;&gt;Тема 5. Численная оптимизация.&lt;/span&gt;&lt;br style=&quot;border-color: var(--border-color); font-family: Verdana; font-size: 16px;&quot;&gt;&lt;span style=&quot;border-color: var(--border-color); font-family: Verdana; font-size: 16px; font-weight: normal;&quot;&gt;5.1. Решение стандартной задачи линейного программирования.&lt;br style=&quot;border-color: var(--border-color);&quot;&gt;5.2. Поиск точки экстремума унимодальной функции одной переменной.&lt;br style=&quot;border-color: var(--border-color);&quot;&gt;5.3. Многомерная оптимизация. Метод Ньютона.&lt;br style=&quot;border-color: var(--border-color);&quot;&gt;&lt;/span&gt;&lt;br style=&quot;border-color: var(--border-color); font-family: Verdana; font-size: 16px;&quot;&gt;&lt;span style=&quot;font-family: Verdana; font-size: 16px;&quot;&gt;Тема 6. Интерполяция.&lt;/span&gt;&lt;br style=&quot;border-color: var(--border-color); font-family: Verdana; font-size: 16px;&quot;&gt;&lt;span style=&quot;border-color: var(--border-color); font-family: Verdana; font-size: 16px; font-weight: normal;&quot;&gt;6.1. Интерполяция по Лагранжу.&lt;br style=&quot;border-color: var(--border-color);&quot;&gt;6.2. Конечные разности. Разделённые разности.&lt;br style=&quot;border-color: var(--border-color);&quot;&gt;6.3. Интерполяция по Ньютону.&lt;br style=&quot;border-color: var(--border-color);&quot;&gt;6.4. Сплайн-интерполяция.&lt;br style=&quot;border-color: var(--border-color);&quot;&gt;&lt;/span&gt;&lt;br style=&quot;border-color: var(--border-color); font-family: Verdana; font-size: 16px;&quot;&gt;&lt;span style=&quot;font-family: Verdana; font-size: 16px;&quot;&gt;Тема 7. Численное дифференцирование.&lt;/span&gt;&lt;br style=&quot;border-color: var(--border-color); font-family: Verdana; font-size: 16px;&quot;&gt;&lt;span style=&quot;border-color: var(--border-color); font-family: Verdana; font-size: 16px; font-weight: normal;&quot;&gt;7.1. Аппроксимация производной.&lt;br style=&quot;border-color: var(--border-color);&quot;&gt;7.2. Использование интерполяционных многочленов.&lt;br style=&quot;border-color: var(--border-color);&quot;&gt;7.3. Аппроксимация производных высших порядков.&lt;br style=&quot;border-color: var(--border-color);&quot;&gt;&lt;/span&gt;&lt;br style=&quot;border-color: var(--border-color); font-family: Verdana; font-size: 16px;&quot;&gt;&lt;span style=&quot;font-family: Verdana; font-size: 16px;&quot;&gt;Тема 8. Численное интегрирование.&lt;/span&gt;&lt;br style=&quot;border-color: var(--border-color); font-family: Verdana; font-size: 16px;&quot;&gt;&lt;span style=&quot;border-color: var(--border-color); font-family: Verdana; font-size: 16px; font-weight: normal;&quot;&gt;8.1. Формула трапеций.&lt;br style=&quot;border-color: var(--border-color);&quot;&gt;8.2. Формула Симпсона.&lt;br style=&quot;border-color: var(--border-color);&quot;&gt;&lt;/span&gt;&lt;br style=&quot;border-color: var(--border-color); font-family: Verdana; font-size: 16px;&quot;&gt;&lt;span style=&quot;font-family: Verdana; font-size: 16px;&quot;&gt;Тема 9. Решение обыкновенных дифференциальных уравнений.&lt;/span&gt;&lt;br style=&quot;border-color: var(--border-color); font-family: Verdana; font-size: 16px;&quot;&gt;&lt;span style=&quot;border-color: var(--border-color); font-family: Verdana; font-size: 16px; font-weight: normal;&quot;&gt;9.1. Метод Эйлера и его модификации.&lt;br style=&quot;border-color: var(--border-color);&quot;&gt;9.2. Метод Рунге-Кутта.&lt;br style=&quot;border-color: var(--border-color);&quot;&gt;9.3. Метод Адамса.&lt;br style=&quot;border-color: var(--border-color);&quot;&gt;&lt;/span&gt;&lt;br style=&quot;border-color: var(--border-color); font-family: Verdana; font-size: 16px;&quot;&gt;&lt;span style=&quot;font-family: Verdana; font-size: 16px;&quot;&gt;Тема 10. Вычисление собственных значений и собственных векторов линейного&lt;/span&gt;&lt;br style=&quot;border-color: var(--border-color); font-family: Verdana; font-size: 16px;&quot;&gt;&lt;span style=&quot;font-family: Verdana; font-size: 16px;&quot;&gt;преобразования.&lt;/span&gt;&lt;br style=&quot;border-color: var(--border-color); font-family: Verdana; font-size: 16px;&quot;&gt;&lt;span style=&quot;border-color: var(--border-color); font-family: Verdana; font-size: 16px; font-weight: normal;&quot;&gt;10.1. Метод Данилевского.&lt;br style=&quot;border-color: var(--border-color);&quot;&gt;10.2. Метод Крылова.&lt;/span&gt;" style="text;strokeColor=default;fillColor=#DEA7BA;spacingLeft=10;spacingRight=0;overflow=hidden;rotatable=0;points=[[0,0.5],[1,0.5]];portConstraint=eastwest;fontSize=14;whiteSpace=wrap;html=1;strokeWidth=2;verticalAlign=middle;spacing=2;fontStyle=1;align=left;horizontal=1;" parent="4ZT7yi2DUqxVnpLDydQl-122" vertex="1">
          <mxGeometry y="190" width="870" height="990" as="geometry" />
        </mxCell>
        <mxCell id="y7rmreXHusG0yKeAJwIb-45" value=" Интегралы и &#xa;дифференциальные &#xa;уравнения" style="swimlane;fontStyle=1;childLayout=stackLayout;horizontal=1;startSize=70;horizontalStack=0;resizeParent=1;resizeParentMax=0;resizeLast=0;collapsible=1;marginBottom=0;align=left;fontSize=18;fillColor=#F8BBD0;strokeWidth=2;rounded=0;verticalAlign=middle;spacingLeft=40;whiteSpace=wrap;" parent="1" vertex="1" collapsed="1">
          <mxGeometry x="470" y="197.5" width="260" height="70" as="geometry">
            <mxRectangle x="1080" y="260" width="890" height="900" as="alternateBounds" />
          </mxGeometry>
        </mxCell>
        <mxCell id="y7rmreXHusG0yKeAJwIb-52" value="Тема 1. Интегральное исчисление&lt;br style=&quot;border-color: var(--border-color); font-family: Verdana; font-size: 16px;&quot;&gt;&lt;span style=&quot;border-color: var(--border-color); font-family: Verdana; font-size: 16px; font-weight: normal;&quot;&gt;1.1 Первообразная и ее свойства. Неопределенный интеграл, его свойства, связь с дифференциалом.&lt;/span&gt;&lt;br style=&quot;border-color: var(--border-color); font-family: Verdana; font-size: 16px;&quot;&gt;&lt;span style=&quot;border-color: var(--border-color); font-family: Verdana; font-size: 16px; font-weight: normal;&quot;&gt;Таблица интегралов.&lt;/span&gt;&lt;br style=&quot;border-color: var(--border-color); font-family: Verdana; font-size: 16px;&quot;&gt;&lt;span style=&quot;border-color: var(--border-color); font-family: Verdana; font-size: 16px; font-weight: normal;&quot;&gt;1.2. Интегрирование подстановкой и по частям. Разложение правильной рациональной дроби на&lt;/span&gt;&lt;br style=&quot;border-color: var(--border-color); font-family: Verdana; font-size: 16px;&quot;&gt;&lt;span style=&quot;border-color: var(--border-color); font-family: Verdana; font-size: 16px; font-weight: normal;&quot;&gt;простейшие. Интегрирование простейших дробей. Интегрирование некоторых тригонометрических&lt;/span&gt;&lt;br style=&quot;border-color: var(--border-color); font-family: Verdana; font-size: 16px;&quot;&gt;&lt;span style=&quot;border-color: var(--border-color); font-family: Verdana; font-size: 16px; font-weight: normal;&quot;&gt;выражений. Примеры интегралов, не выражающихся через элементарные функции.&lt;/span&gt;&lt;br style=&quot;border-color: var(--border-color); font-family: Verdana; font-size: 16px;&quot;&gt;&lt;span style=&quot;border-color: var(--border-color); font-family: Verdana; font-size: 16px; font-weight: normal;&quot;&gt;1.3. Задачи, приводящие к понятию определенного интеграла. Определенный интеграл как предел&lt;/span&gt;&lt;br style=&quot;border-color: var(--border-color); font-family: Verdana; font-size: 16px;&quot;&gt;&lt;span style=&quot;border-color: var(--border-color); font-family: Verdana; font-size: 16px; font-weight: normal;&quot;&gt;интегральных сумм. Физическая и экономическая интерпретация определённого интеграла.&lt;/span&gt;&lt;br style=&quot;border-color: var(--border-color); font-family: Verdana; font-size: 16px;&quot;&gt;&lt;span style=&quot;border-color: var(--border-color); font-family: Verdana; font-size: 16px; font-weight: normal;&quot;&gt;Свойства определенного интеграла. Формула Ньютона—Лейбница.&lt;/span&gt;&lt;br style=&quot;border-color: var(--border-color); font-family: Verdana; font-size: 16px;&quot;&gt;&lt;span style=&quot;border-color: var(--border-color); font-family: Verdana; font-size: 16px; font-weight: normal;&quot;&gt;1.4. Вычисление определенных интегралов подстановкой и по частям. Интегрирование четных и&lt;/span&gt;&lt;br style=&quot;border-color: var(--border-color); font-family: Verdana; font-size: 16px;&quot;&gt;&lt;span style=&quot;border-color: var(--border-color); font-family: Verdana; font-size: 16px; font-weight: normal;&quot;&gt;нечетных функций по отрезку, симметричному относительно начала координат.&lt;/span&gt;&lt;br style=&quot;border-color: var(--border-color); font-family: Verdana; font-size: 16px;&quot;&gt;&lt;span style=&quot;border-color: var(--border-color); font-family: Verdana; font-size: 16px; font-weight: normal;&quot;&gt;1.5. Вычисление площадей плоских фигур в декартовых и полярных координатах. Вычисление&lt;/span&gt;&lt;br style=&quot;border-color: var(--border-color); font-family: Verdana; font-size: 16px;&quot;&gt;&lt;span style=&quot;border-color: var(--border-color); font-family: Verdana; font-size: 16px; font-weight: normal;&quot;&gt;объемов тел по площадям поперечных сечений и объемов тел вращения, вычисление длины дуги&lt;/span&gt;&lt;br style=&quot;border-color: var(--border-color); font-family: Verdana; font-size: 16px;&quot;&gt;&lt;span style=&quot;border-color: var(--border-color); font-family: Verdana; font-size: 16px; font-weight: normal;&quot;&gt;кривой и площади поверхности вращения.&lt;br style=&quot;border-color: var(--border-color);&quot;&gt;&lt;/span&gt;&lt;br style=&quot;border-color: var(--border-color); font-family: Verdana; font-size: 16px;&quot;&gt;&lt;span style=&quot;font-family: Verdana; font-size: 16px;&quot;&gt;Тема 2. Дифференциальные уравнения&lt;/span&gt;&lt;br style=&quot;border-color: var(--border-color); font-family: Verdana; font-size: 16px;&quot;&gt;&lt;span style=&quot;border-color: var(--border-color); font-family: Verdana; font-size: 16px; font-weight: normal;&quot;&gt;2.1. Инженерные и физические задачи, приводящие к дифференциальным уравнениям.&lt;/span&gt;&lt;br style=&quot;border-color: var(--border-color); font-family: Verdana; font-size: 16px;&quot;&gt;&lt;span style=&quot;border-color: var(--border-color); font-family: Verdana; font-size: 16px; font-weight: normal;&quot;&gt;Дифференциальные уравнения (ДУ) первого порядка, его решения (частные и общие).&lt;/span&gt;&lt;br style=&quot;border-color: var(--border-color); font-family: Verdana; font-size: 16px;&quot;&gt;&lt;span style=&quot;border-color: var(--border-color); font-family: Verdana; font-size: 16px; font-weight: normal;&quot;&gt;Интегральные кривые.&lt;/span&gt;&lt;br style=&quot;border-color: var(--border-color); font-family: Verdana; font-size: 16px;&quot;&gt;&lt;span style=&quot;border-color: var(--border-color); font-family: Verdana; font-size: 16px; font-weight: normal;&quot;&gt;2.2. Задача Коши для ДУ 1-го порядка, теорема Коши о существовании и единственности решения&lt;/span&gt;&lt;br style=&quot;border-color: var(--border-color); font-family: Verdana; font-size: 16px;&quot;&gt;&lt;span style=&quot;border-color: var(--border-color); font-family: Verdana; font-size: 16px; font-weight: normal;&quot;&gt;ДУ. Методы решения ДУ 1-го порядка: с разделяющимися переменными и линейные.&lt;/span&gt;&lt;br style=&quot;border-color: var(--border-color); font-family: Verdana; font-size: 16px;&quot;&gt;&lt;span style=&quot;border-color: var(--border-color); font-family: Verdana; font-size: 16px; font-weight: normal;&quot;&gt;2.3. Дифференциальные уравнения 2-го порядка, частные и общие решения. Задача Коши и ее&lt;/span&gt;&lt;br style=&quot;border-color: var(--border-color); font-family: Verdana; font-size: 16px;&quot;&gt;&lt;span style=&quot;border-color: var(--border-color); font-family: Verdana; font-size: 16px; font-weight: normal;&quot;&gt;геометрическая интерпретация. Теорема Коши о существовании и единственности решения задач&lt;/span&gt;&lt;br style=&quot;border-color: var(--border-color); font-family: Verdana; font-size: 16px;&quot;&gt;&lt;span style=&quot;border-color: var(--border-color); font-family: Verdana; font-size: 16px; font-weight: normal;&quot;&gt;Коши. 2.4. ДУ второго порядка. Уравнения, допускающие понижение порядка.&lt;/span&gt;&lt;br style=&quot;border-color: var(--border-color); font-family: Verdana; font-size: 16px;&quot;&gt;&lt;span style=&quot;border-color: var(--border-color); font-family: Verdana; font-size: 16px; font-weight: normal;&quot;&gt;2.5. Линейные дифференциальные уравнения (ЛДУ) n-го порядка, однородные и неоднородные.&lt;/span&gt;&lt;br style=&quot;border-color: var(--border-color); font-family: Verdana; font-size: 16px;&quot;&gt;&lt;span style=&quot;border-color: var(--border-color); font-family: Verdana; font-size: 16px; font-weight: normal;&quot;&gt;Линейность пространства решений однородного ЛДУ. Линейно зависимые и независимые системы&lt;/span&gt;&lt;br style=&quot;border-color: var(--border-color); font-family: Verdana; font-size: 16px;&quot;&gt;&lt;span style=&quot;border-color: var(--border-color); font-family: Verdana; font-size: 16px; font-weight: normal;&quot;&gt;функций на промежутке. Определитель Вронского, его свойства Структура общего решения&lt;/span&gt;&lt;br style=&quot;border-color: var(--border-color); font-family: Verdana; font-size: 16px;&quot;&gt;&lt;span style=&quot;border-color: var(--border-color); font-family: Verdana; font-size: 16px; font-weight: normal;&quot;&gt;однородного ДУ n-го порядка. Формула Остроградского – Лиувилля и ее следствия.&lt;/span&gt;&lt;br style=&quot;border-color: var(--border-color); font-family: Verdana; font-size: 16px;&quot;&gt;&lt;span style=&quot;border-color: var(--border-color); font-family: Verdana; font-size: 16px; font-weight: normal;&quot;&gt;2.6. Однородные ЛДУ n-го порядка с постоянными коэффициентами. Характеристическое&lt;/span&gt;&lt;br style=&quot;border-color: var(--border-color); font-family: Verdana; font-size: 16px;&quot;&gt;&lt;span style=&quot;border-color: var(--border-color); font-family: Verdana; font-size: 16px; font-weight: normal;&quot;&gt;уравнение. Построение общего решения однородного ЛДУ n-го порядка по корням&lt;/span&gt;&lt;br style=&quot;border-color: var(--border-color); font-family: Verdana; font-size: 16px;&quot;&gt;&lt;span style=&quot;border-color: var(--border-color); font-family: Verdana; font-size: 16px; font-weight: normal;&quot;&gt;характеристического уравнения.&lt;/span&gt;&lt;br style=&quot;border-color: var(--border-color); font-family: Verdana; font-size: 16px;&quot;&gt;&lt;span style=&quot;border-color: var(--border-color); font-family: Verdana; font-size: 16px; font-weight: normal;&quot;&gt;2.7. Неоднородные ЛДУ n-го порядка, структура общего решения. Теорема о наложении частных&lt;/span&gt;&lt;br style=&quot;border-color: var(--border-color); font-family: Verdana; font-size: 16px;&quot;&gt;&lt;span style=&quot;border-color: var(--border-color); font-family: Verdana; font-size: 16px; font-weight: normal;&quot;&gt;решений. Решение неоднородного ЛДУ второго порядка с правой частью специального вида.&lt;/span&gt;&lt;br style=&quot;border-color: var(--border-color); font-family: Verdana; font-size: 16px;&quot;&gt;&lt;span style=&quot;border-color: var(--border-color); font-family: Verdana; font-size: 16px; font-weight: normal;&quot;&gt;Решение НЛДУ n-го порядка методом Лагранжа вариации постоянных.&lt;/span&gt;&lt;br style=&quot;border-color: var(--border-color); font-family: Verdana; font-size: 16px;&quot;&gt;&lt;span style=&quot;border-color: var(--border-color); font-family: Verdana; font-size: 16px; font-weight: normal;&quot;&gt;2.8. Системы ДУ. Сведение ДУ n-го порядка к нормальной системе. Сведение системы к ДУ. Задача&lt;/span&gt;&lt;br style=&quot;border-color: var(--border-color); font-family: Verdana; font-size: 16px;&quot;&gt;&lt;span style=&quot;border-color: var(--border-color); font-family: Verdana; font-size: 16px; font-weight: normal;&quot;&gt;Коши. Теорема существования и единственности. Нормальные системы ЛДУ. Определитель&lt;/span&gt;&lt;br style=&quot;border-color: var(--border-color); font-family: Verdana; font-size: 16px;&quot;&gt;&lt;span style=&quot;border-color: var(--border-color); font-family: Verdana; font-size: 16px; font-weight: normal;&quot;&gt;Вронского и его свойства. Пространство решений ОЛДУ.&lt;/span&gt;&lt;br style=&quot;border-color: var(--border-color); font-family: Verdana; font-size: 16px;&quot;&gt;&lt;span style=&quot;border-color: var(--border-color); font-family: Verdana; font-size: 16px; font-weight: normal;&quot;&gt;2.9. Структура общего решения системы НЛДУ. Метод вариации постоянных для систем НЛДУ.&lt;/span&gt;&lt;br style=&quot;border-color: var(--border-color); font-family: Verdana; font-size: 16px;&quot;&gt;&lt;span style=&quot;border-color: var(--border-color); font-family: Verdana; font-size: 16px; font-weight: normal;&quot;&gt;Системы ОЛДУ с постоянными коэффициентами. Построение ФСР по корням характеристического&lt;/span&gt;&lt;br style=&quot;border-color: var(--border-color); font-family: Verdana; font-size: 16px;&quot;&gt;&lt;span style=&quot;border-color: var(--border-color); font-family: Verdana; font-size: 16px; font-weight: normal;&quot;&gt;уравнения.&lt;/span&gt;" style="text;strokeColor=default;fillColor=#DEA7BA;spacingLeft=10;spacingRight=0;overflow=hidden;rotatable=0;points=[[0,0.5],[1,0.5]];portConstraint=eastwest;fontSize=14;whiteSpace=wrap;html=1;strokeWidth=2;verticalAlign=middle;spacing=2;fontStyle=1;align=left;horizontal=1;" parent="y7rmreXHusG0yKeAJwIb-45" vertex="1">
          <mxGeometry y="70" width="890" height="830" as="geometry" />
        </mxCell>
        <mxCell id="4ZT7yi2DUqxVnpLDydQl-46" value="Математический анализ" style="swimlane;fontStyle=1;childLayout=stackLayout;horizontal=1;startSize=70;horizontalStack=0;resizeParent=1;resizeParentMax=0;resizeLast=0;collapsible=1;marginBottom=0;align=left;fontSize=18;fillColor=#F8BBD0;strokeWidth=2;rounded=0;verticalAlign=middle;spacingLeft=20;swimlaneLine=1;comic=0;enumerate=0;moveCells=0;resizeHeight=0;autosize=1;" parent="1" vertex="1" collapsed="1">
          <mxGeometry x="470" y="77.5" width="260" height="70" as="geometry">
            <mxRectangle x="1080" y="140" width="890" height="910" as="alternateBounds" />
          </mxGeometry>
        </mxCell>
        <mxCell id="4ZT7yi2DUqxVnpLDydQl-47" value="&lt;font style=&quot;font-size: 16px;&quot;&gt;Тема 1. Элементарные функции и пределы.&lt;br style=&quot;border-color: var(--border-color); font-family: Verdana;&quot;&gt;&lt;span style=&quot;border-color: var(--border-color); font-family: Verdana; background-color: initial; font-weight: normal;&quot;&gt;1.1.Логическая символика. Необходимое условие, достаточное условие, критерий. Прямая и&lt;/span&gt;&lt;br style=&quot;border-color: var(--border-color); font-family: Verdana; background-color: initial;&quot;&gt;&lt;span style=&quot;border-color: var(--border-color); font-family: Verdana; background-color: initial; font-weight: normal;&quot;&gt;обратная теоремы. Множество R действительных чисел, промежутки.&lt;/span&gt;&lt;br style=&quot;border-color: var(--border-color); font-family: Verdana; background-color: initial;&quot;&gt;&lt;span style=&quot;border-color: var(--border-color); font-family: Verdana; background-color: initial; font-weight: normal;&quot;&gt;1.2. Числовая функция и ее график. Класс элементарных функций.&lt;/span&gt;&lt;br style=&quot;border-color: var(--border-color); font-family: Verdana; background-color: initial;&quot;&gt;&lt;span style=&quot;border-color: var(--border-color); font-family: Verdana; background-color: initial; font-weight: normal;&quot;&gt;1.3. Числовая последовательность и ее предел, геометрическая интерпретация предела. Свойства&lt;/span&gt;&lt;br style=&quot;border-color: var(--border-color); font-family: Verdana; background-color: initial;&quot;&gt;&lt;span style=&quot;border-color: var(--border-color); font-family: Verdana; background-color: initial; font-weight: normal;&quot;&gt;предела последовательности, достаточное условие существование предела последовательности.&lt;/span&gt;&lt;br style=&quot;border-color: var(--border-color); font-family: Verdana; background-color: initial;&quot;&gt;&lt;span style=&quot;border-color: var(--border-color); font-family: Verdana; background-color: initial; font-weight: normal;&quot;&gt;Число е.&lt;/span&gt;&lt;br style=&quot;border-color: var(--border-color); font-family: Verdana; background-color: initial;&quot;&gt;&lt;span style=&quot;border-color: var(--border-color); font-family: Verdana; background-color: initial; font-weight: normal;&quot;&gt;1.4. Окрестности точки. Общее определение предела функции при произвольном стремлении&lt;/span&gt;&lt;br style=&quot;border-color: var(--border-color); font-family: Verdana; background-color: initial;&quot;&gt;&lt;span style=&quot;border-color: var(--border-color); font-family: Verdana; background-color: initial; font-weight: normal;&quot;&gt;аргумента. Общие свойства предела функции, теорема о пределе промежуточной функции.&lt;/span&gt;&lt;br style=&quot;border-color: var(--border-color); font-family: Verdana; background-color: initial;&quot;&gt;&lt;span style=&quot;border-color: var(--border-color); font-family: Verdana; background-color: initial; font-weight: normal;&quot;&gt;Бесконечно малые функции при данном стремлении аргумента, их свойства. Замечательные&lt;/span&gt;&lt;br style=&quot;border-color: var(--border-color); font-family: Verdana; background-color: initial;&quot;&gt;&lt;span style=&quot;border-color: var(--border-color); font-family: Verdana; background-color: initial; font-weight: normal;&quot;&gt;пределы и их следствия.&lt;/span&gt;&lt;br style=&quot;border-color: var(--border-color); font-family: Verdana; background-color: initial;&quot;&gt;&lt;span style=&quot;border-color: var(--border-color); font-family: Verdana; background-color: initial; font-weight: normal;&quot;&gt;1.5. Сравнение функций при данном стремлении, отношения эквивалентности и «о-малое», связь&lt;/span&gt;&lt;br style=&quot;border-color: var(--border-color); font-family: Verdana; background-color: initial;&quot;&gt;&lt;span style=&quot;border-color: var(--border-color); font-family: Verdana; background-color: initial; font-weight: normal;&quot;&gt;между ними, их свойства и применение для вычисления пределов.&lt;/span&gt;&lt;br style=&quot;border-color: var(--border-color); font-family: Verdana; background-color: initial;&quot;&gt;&lt;span style=&quot;border-color: var(--border-color); font-family: Verdana; background-color: initial; font-weight: normal;&quot;&gt;1.6. Непрерывность функции в точке, равносильные формулировки. Свойства непрерывных&lt;/span&gt;&lt;br style=&quot;border-color: var(--border-color); font-family: Verdana; background-color: initial;&quot;&gt;&lt;span style=&quot;border-color: var(--border-color); font-family: Verdana; background-color: initial; font-weight: normal;&quot;&gt;функций. Непрерывность функции на промежутке, в частности, на отрезке. Теоремы о свойствах&lt;/span&gt;&lt;br style=&quot;border-color: var(--border-color); font-family: Verdana; background-color: initial;&quot;&gt;&lt;span style=&quot;border-color: var(--border-color); font-family: Verdana; background-color: initial; font-weight: normal;&quot;&gt;функции, непрерывной на отрезке, теорема о непрерывности обратной функции.&lt;/span&gt;&lt;br style=&quot;border-color: var(--border-color); font-family: Verdana; background-color: initial;&quot;&gt;&lt;span style=&quot;border-color: var(--border-color); font-family: Verdana; background-color: initial; font-weight: normal;&quot;&gt;1.7. Точки разрыва функции и их классификация. Нахождение асимптот графика функции.&lt;br style=&quot;border-color: var(--border-color);&quot;&gt;&lt;/span&gt;&lt;br style=&quot;border-color: var(--border-color); font-family: Verdana; background-color: initial;&quot;&gt;&lt;span style=&quot;border-color: var(--border-color); font-family: Verdana; background-color: initial;&quot;&gt;Тема 2. Дифференциальное исчисление функций одной переменной&lt;/span&gt;&lt;br style=&quot;border-color: var(--border-color); font-family: Verdana; background-color: initial;&quot;&gt;&lt;span style=&quot;border-color: var(--border-color); font-family: Verdana; background-color: initial; font-weight: normal;&quot;&gt;2.1. Производная функции в точке, ее физический и геометрический смысл.&lt;/span&gt;&lt;br style=&quot;border-color: var(--border-color); font-family: Verdana; background-color: initial;&quot;&gt;&lt;span style=&quot;border-color: var(--border-color); font-family: Verdana; background-color: initial; font-weight: normal;&quot;&gt;2.2. Дифференцируемость функции в точке. Непрерывность дифференцируемой функции.&lt;/span&gt;&lt;br style=&quot;border-color: var(--border-color); font-family: Verdana; background-color: initial;&quot;&gt;&lt;span style=&quot;border-color: var(--border-color); font-family: Verdana; background-color: initial; font-weight: normal;&quot;&gt;2.3. Основные правила нахождения производных: производная постоянной, суммы, произведения и&lt;/span&gt;&lt;br style=&quot;border-color: var(--border-color); font-family: Verdana; background-color: initial;&quot;&gt;&lt;span style=&quot;border-color: var(--border-color); font-family: Verdana; background-color: initial; font-weight: normal;&quot;&gt;частного; производная сложной и обратной функций (доказать два из них).&lt;/span&gt;&lt;br style=&quot;border-color: var(--border-color); font-family: Verdana; background-color: initial;&quot;&gt;&lt;span style=&quot;border-color: var(--border-color); font-family: Verdana; background-color: initial; font-weight: normal;&quot;&gt;2.4. Вывод производных основных элементарных функций. Производные высших порядков.&lt;/span&gt;&lt;br style=&quot;border-color: var(--border-color); font-family: Verdana; background-color: initial;&quot;&gt;&lt;span style=&quot;border-color: var(--border-color); font-family: Verdana; background-color: initial; font-weight: normal;&quot;&gt;2.5. Дифференциал функции, его геометрический смысл. Правила вычисления дифференциалов.&lt;/span&gt;&lt;br style=&quot;border-color: var(--border-color); font-family: Verdana; background-color: initial;&quot;&gt;&lt;span style=&quot;border-color: var(--border-color); font-family: Verdana; background-color: initial; font-weight: normal;&quot;&gt;Инвариантность формы первого дифференциала. Дифференциалы высших порядков.&lt;/span&gt;&lt;br style=&quot;border-color: var(--border-color); font-family: Verdana; background-color: initial;&quot;&gt;&lt;span style=&quot;border-color: var(--border-color); font-family: Verdana; background-color: initial; font-weight: normal;&quot;&gt;2.6. Экстремум функции. Необходимое условие экстремума. Теоремы Ролля, Коши и Лагранжа.&lt;/span&gt;&lt;br style=&quot;border-color: var(--border-color); font-family: Verdana; background-color: initial;&quot;&gt;&lt;span style=&quot;border-color: var(--border-color); font-family: Verdana; background-color: initial; font-weight: normal;&quot;&gt;2.7. Правило Лопиталя-Бернулли раскрытия неопределенностей. Сравнение роста показательной,&lt;/span&gt;&lt;br style=&quot;border-color: var(--border-color); font-family: Verdana; background-color: initial;&quot;&gt;&lt;span style=&quot;border-color: var(--border-color); font-family: Verdana; background-color: initial; font-weight: normal;&quot;&gt;степенной и логарифмической функций в бесконечности.&lt;/span&gt;&lt;br style=&quot;border-color: var(--border-color); font-family: Verdana; background-color: initial;&quot;&gt;&lt;span style=&quot;border-color: var(--border-color); font-family: Verdana; background-color: initial; font-weight: normal;&quot;&gt;2.8. Понятие многочлена Тейлора степени п для данной функции в точке х0. его свойства. Формула&lt;/span&gt;&lt;br style=&quot;border-color: var(--border-color); font-family: Verdana; background-color: initial;&quot;&gt;&lt;span style=&quot;border-color: var(--border-color); font-family: Verdana; background-color: initial; font-weight: normal;&quot;&gt;Тейлора с остаточным членом в форме Лагранжа и в форме Пеано. Формула Маклорена и&lt;/span&gt;&lt;br style=&quot;border-color: var(--border-color); font-family: Verdana; background-color: initial;&quot;&gt;&lt;span style=&quot;border-color: var(--border-color); font-family: Verdana; background-color: initial; font-weight: normal;&quot;&gt;представление по этой формуле некоторых элементарных функций.&lt;/span&gt;&lt;br style=&quot;border-color: var(--border-color); font-family: Verdana; background-color: initial;&quot;&gt;&lt;span style=&quot;border-color: var(--border-color); font-family: Verdana; background-color: initial; font-weight: normal;&quot;&gt;2.9. Достаточное условие монотонности дифференцируемой функции на промежутке. Экстремум&lt;/span&gt;&lt;br style=&quot;border-color: var(--border-color); font-family: Verdana; background-color: initial;&quot;&gt;&lt;span style=&quot;border-color: var(--border-color); font-family: Verdana; background-color: initial; font-weight: normal;&quot;&gt;функции. Стационарные и критические точки функции. Достаточные условия экстремума.&lt;/span&gt;&lt;br style=&quot;border-color: var(--border-color); font-family: Verdana; background-color: initial;&quot;&gt;&lt;span style=&quot;border-color: var(--border-color); font-family: Verdana; background-color: initial; font-weight: normal;&quot;&gt;2.10. Понятие выпуклости (вверх, вниз) функции на промежутке. Достаточное условие выпуклости&lt;/span&gt;&lt;br style=&quot;border-color: var(--border-color); font-family: Verdana; background-color: initial;&quot;&gt;&lt;span style=&quot;border-color: var(--border-color); font-family: Verdana; background-color: initial; font-weight: normal;&quot;&gt;графика дважды дифференцируемой функции.&lt;/span&gt;&lt;br style=&quot;border-color: var(--border-color); font-family: Verdana; background-color: initial;&quot;&gt;&lt;span style=&quot;border-color: var(--border-color); font-family: Verdana; background-color: initial; font-weight: normal;&quot;&gt;2.11. Точки перегиба графика функции. Необходимое условие перегиба графика в точке,&lt;/span&gt;&lt;br style=&quot;border-color: var(--border-color); font-family: Verdana; background-color: initial;&quot;&gt;&lt;span style=&quot;border-color: var(--border-color); font-family: Verdana; background-color: initial; font-weight: normal;&quot;&gt;достаточное условие.&lt;/span&gt;&lt;br style=&quot;border-color: var(--border-color); font-family: Verdana; background-color: initial;&quot;&gt;&lt;span style=&quot;border-color: var(--border-color); font-family: Verdana; background-color: initial; font-weight: normal;&quot;&gt;2.12. Схема полного исследования и построения графика функции.&lt;/span&gt;&lt;br style=&quot;border-color: var(--border-color); font-family: Verdana; background-color: initial;&quot;&gt;&lt;span style=&quot;border-color: var(--border-color); font-family: Verdana; background-color: initial;&quot;&gt;&lt;span style=&quot;border-color: var(--border-color); font-weight: normal;&quot;&gt;2.13. Дифференциал дуги кривой. Вектор-функция. Кривизна кривой.&lt;/span&gt;&amp;nbsp;&lt;/span&gt;&lt;/font&gt;" style="text;strokeColor=default;fillColor=#DEA7BA;spacingLeft=10;spacingRight=0;overflow=hidden;rotatable=0;points=[[0,0.5],[1,0.5]];portConstraint=eastwest;fontSize=14;whiteSpace=wrap;html=1;strokeWidth=2;verticalAlign=middle;spacing=2;fontStyle=1;align=left;horizontal=1;" parent="4ZT7yi2DUqxVnpLDydQl-46" vertex="1">
          <mxGeometry y="70" width="890" height="840" as="geometry" />
        </mxCell>
        <mxCell id="y7rmreXHusG0yKeAJwIb-134" value="Математическая логика и теория алгоритмов" style="swimlane;fontStyle=1;childLayout=stackLayout;horizontal=1;startSize=70;horizontalStack=0;resizeParent=1;resizeParentMax=0;resizeLast=0;collapsible=1;marginBottom=0;align=left;fontSize=18;fillColor=#F8BBD0;strokeWidth=2;rounded=0;verticalAlign=middle;spacingLeft=10;whiteSpace=wrap;" parent="1" vertex="1" collapsed="1">
          <mxGeometry x="10" y="317.5" width="260" height="70" as="geometry">
            <mxRectangle x="620" y="380" width="530" height="560" as="alternateBounds" />
          </mxGeometry>
        </mxCell>
        <mxCell id="y7rmreXHusG0yKeAJwIb-135" value="&lt;ol&gt;&lt;li&gt;Формулы алгебры логики.&amp;nbsp;&lt;/li&gt;&lt;li&gt;Функции алгебры логики.&lt;/li&gt;&lt;li&gt;Эквивалентность формул.&amp;nbsp;&lt;/li&gt;&lt;li&gt;Нормальные формы.&amp;nbsp;&lt;/li&gt;&lt;li&gt;Алгоритмы приведения формулы к ДНФ,&lt;/li&gt;&lt;li&gt;КНФ, СДНФ, СКНФ.&amp;nbsp;&lt;/li&gt;&lt;li&gt;Теорема о функциональной полноте.&amp;nbsp;&lt;/li&gt;&lt;li&gt;Минимизация булевых функций.&lt;/li&gt;&lt;li&gt;Принцип двойственности.&amp;nbsp;&lt;/li&gt;&lt;li&gt;Полнота системы булевых функций.&amp;nbsp;&lt;/li&gt;&lt;li&gt;Классы Поста.&lt;/li&gt;&lt;li&gt;Функциональная декомпозиция.&amp;nbsp;&lt;/li&gt;&lt;li&gt;Логические сети.&amp;nbsp;&lt;/li&gt;&lt;li&gt;Переключательные схемы.&amp;nbsp;&lt;/li&gt;&lt;li&gt;Схемы из функциональных элементов. (Комбинационные схемы).&amp;nbsp;&lt;/li&gt;&lt;li&gt;Формальные исчисления. Исчисления высказываний.&amp;nbsp;&lt;/li&gt;&lt;li&gt;Теория предикатов. Исчисления предикатов.&amp;nbsp;&lt;/li&gt;&lt;li&gt;Эквивалентность формул ИП.&lt;/li&gt;&lt;li&gt;Префиксные нормальные формы.&amp;nbsp;&lt;/li&gt;&lt;li&gt;Понятия алгоритмической системы.&amp;nbsp;&lt;/li&gt;&lt;li&gt;Свойства алгоритмов.&lt;/li&gt;&lt;li&gt;Меры сложности алгоритмов.&amp;nbsp;&lt;/li&gt;&lt;li&gt;Легко трудноразрешимые задачи.&amp;nbsp;&lt;/li&gt;&lt;li&gt;Классы задач P и NP, NP – полные задачи.&amp;nbsp;&lt;/li&gt;&lt;li&gt;Нечеткая и модальная логики.&amp;nbsp;&lt;/li&gt;&lt;li&gt;Нечеткая арифметика.&amp;nbsp;&lt;/li&gt;&lt;li&gt;Основы нечеткой логики.&lt;/li&gt;&lt;/ol&gt;" style="text;strokeColor=default;fillColor=#DEA7BA;spacingLeft=10;spacingRight=0;overflow=hidden;rotatable=0;points=[[0,0.5],[1,0.5]];portConstraint=eastwest;fontSize=14;whiteSpace=wrap;html=1;strokeWidth=2;verticalAlign=middle;spacing=2;fontStyle=1;align=left;horizontal=1;" parent="y7rmreXHusG0yKeAJwIb-134" vertex="1">
          <mxGeometry y="70" width="530" height="490" as="geometry" />
        </mxCell>
        <mxCell id="4ZT7yi2DUqxVnpLDydQl-102" value="Дискретная математика" style="swimlane;fontStyle=1;childLayout=stackLayout;horizontal=1;startSize=70;horizontalStack=0;resizeParent=1;resizeParentMax=0;resizeLast=0;collapsible=1;marginBottom=0;align=left;fontSize=18;fillColor=#F8BBD0;strokeWidth=2;rounded=0;verticalAlign=middle;spacingLeft=25;whiteSpace=wrap;" parent="1" vertex="1" collapsed="1">
          <mxGeometry x="10" y="197.5" width="260" height="70" as="geometry">
            <mxRectangle x="620" y="260" width="350" height="380" as="alternateBounds" />
          </mxGeometry>
        </mxCell>
        <mxCell id="4ZT7yi2DUqxVnpLDydQl-103" value="&lt;ol&gt;&lt;li&gt;Теория множеств.&amp;nbsp;&lt;/li&gt;&lt;li&gt;Алгебра высказываний.&amp;nbsp;&lt;/li&gt;&lt;li&gt;Отношение.&amp;nbsp;&lt;/li&gt;&lt;li&gt;Свойства отношений.&amp;nbsp;&lt;/li&gt;&lt;li&gt;Понятие функции и отображения.&amp;nbsp;&lt;/li&gt;&lt;li&gt;Виды функций.&amp;nbsp;&lt;/li&gt;&lt;li&gt;Обратные функции и отображения.&amp;nbsp;&lt;/li&gt;&lt;li&gt;Комбинаторика.&amp;nbsp;&lt;/li&gt;&lt;li&gt;Теория графов.&amp;nbsp;&lt;/li&gt;&lt;li&gt;Виды и способы задания графов.&amp;nbsp;&lt;/li&gt;&lt;li&gt;Операции над графами.&amp;nbsp;&lt;/li&gt;&lt;li&gt;Маршруты, достижимость, связность.&amp;nbsp;&lt;/li&gt;&lt;li&gt;Расстояния в графах.&amp;nbsp;&lt;/li&gt;&lt;li&gt;Расстояния в графах.&lt;/li&gt;&lt;li&gt;Алгоритмы Форда-Беллмана, Дейкстры.&amp;nbsp;&lt;/li&gt;&lt;li&gt;Циклы в графах.&lt;/li&gt;&lt;/ol&gt;" style="text;strokeColor=default;fillColor=#DEA7BA;spacingLeft=10;spacingRight=0;overflow=hidden;rotatable=0;points=[[0,0.5],[1,0.5]];portConstraint=eastwest;fontSize=14;whiteSpace=wrap;html=1;strokeWidth=2;verticalAlign=middle;spacing=2;fontStyle=1;align=left;horizontal=1;" parent="4ZT7yi2DUqxVnpLDydQl-102" vertex="1">
          <mxGeometry y="70" width="350" height="310" as="geometry" />
        </mxCell>
        <mxCell id="y7rmreXHusG0yKeAJwIb-69" value="Информатика" style="swimlane;fontStyle=1;childLayout=stackLayout;horizontal=1;startSize=70;horizontalStack=0;resizeParent=1;resizeParentMax=0;resizeLast=0;collapsible=1;marginBottom=0;align=left;fontSize=18;fillColor=#C5CAE9;strokeWidth=2;rounded=0;verticalAlign=middle;spacingLeft=60;whiteSpace=wrap;" parent="1" vertex="1" collapsed="1">
          <mxGeometry x="10" y="77.5" width="260" height="70" as="geometry">
            <mxRectangle x="620" y="140" width="540" height="230" as="alternateBounds" />
          </mxGeometry>
        </mxCell>
        <mxCell id="y7rmreXHusG0yKeAJwIb-70" value="&lt;ol&gt;&lt;li&gt;&lt;span style=&quot;background-color: initial;&quot;&gt;Информационно-логические основы построения вычислительных машин.&lt;/span&gt;&lt;/li&gt;&lt;li&gt;&lt;span style=&quot;background-color: initial;&quot;&gt;Функциональная и структурная организация ПК.&amp;nbsp;&lt;/span&gt;&lt;/li&gt;&lt;li&gt;&lt;span style=&quot;background-color: initial;&quot;&gt;Программное управление.&lt;/span&gt;&lt;/li&gt;&lt;li&gt;&lt;span style=&quot;background-color: initial;&quot;&gt;Безопасность компьютерных систем.&amp;nbsp;&lt;/span&gt;&lt;/li&gt;&lt;li&gt;&lt;span style=&quot;background-color: initial;&quot;&gt;Технологии подготовки сложных текстовых документов.&lt;/span&gt;&lt;/li&gt;&lt;li&gt;&lt;span style=&quot;background-color: initial;&quot;&gt;Автоматизация вычислений при помощи электронных таблиц.&amp;nbsp;&lt;/span&gt;&lt;/li&gt;&lt;li&gt;&lt;span style=&quot;background-color: initial;&quot;&gt;Подготовка презентационных материалов&lt;/span&gt;&lt;/li&gt;&lt;/ol&gt;" style="text;strokeColor=default;fillColor=#B8BCD9;spacingLeft=10;spacingRight=0;overflow=hidden;rotatable=0;points=[[0,0.5],[1,0.5]];portConstraint=eastwest;fontSize=14;whiteSpace=wrap;html=1;strokeWidth=2;verticalAlign=middle;spacing=2;fontStyle=1;align=left;horizontal=1;" parent="y7rmreXHusG0yKeAJwIb-69" vertex="1">
          <mxGeometry y="70" width="540" height="160" as="geometry" />
        </mxCell>
        <mxCell id="4ZT7yi2DUqxVnpLDydQl-72" value="Объектно-&#xa;ориентированное &#xa;программирование" style="swimlane;fontStyle=1;childLayout=stackLayout;horizontal=1;startSize=190;horizontalStack=0;resizeParent=1;resizeParentMax=0;resizeLast=0;collapsible=1;marginBottom=0;align=left;fontSize=18;fillColor=#C5CAE9;strokeWidth=2;rounded=0;verticalAlign=middle;spacingLeft=40;whiteSpace=wrap;" parent="1" vertex="1" collapsed="1">
          <mxGeometry x="-450" y="317.5" width="260" height="190" as="geometry">
            <mxRectangle x="160" y="380" width="810" height="500" as="alternateBounds" />
          </mxGeometry>
        </mxCell>
        <mxCell id="4ZT7yi2DUqxVnpLDydQl-73" value="&lt;ol style=&quot;border-color: var(--border-color); font-family: Verdana; font-size: 16px;&quot;&gt;&lt;li style=&quot;border-color: var(--border-color);&quot;&gt;Язык программирования С++. Стандартная библиотека.&lt;/li&gt;&lt;li style=&quot;border-color: var(--border-color);&quot;&gt;&lt;span style=&quot;border-color: var(--border-color); background-color: initial;&quot;&gt;Объектно ориентированная декомпозиция. Абстрагирование. Отношения между&amp;nbsp;&lt;/span&gt;&lt;span style=&quot;border-color: var(--border-color);&quot;&gt;&lt;font style=&quot;border-color: var(--border-color); font-size: 16px;&quot;&gt;классами. UML диаграмма классов.&lt;/font&gt;&lt;/span&gt;&lt;/li&gt;&lt;li style=&quot;border-color: var(--border-color);&quot;&gt;&lt;span style=&quot;border-color: var(--border-color); background-color: initial;&quot;&gt;Инкапсуляция. Поля, методы, конструкторы.&lt;/span&gt;&lt;/li&gt;&lt;li style=&quot;border-color: var(--border-color);&quot;&gt;&lt;span style=&quot;border-color: var(--border-color); background-color: initial;&quot;&gt;Наследование.&lt;/span&gt;&lt;/li&gt;&lt;li style=&quot;border-color: var(--border-color);&quot;&gt;&lt;span style=&quot;border-color: var(--border-color); background-color: initial;&quot;&gt;Полиморфизм. Абстрактные и виртуальные классы. Шаблоны.&lt;/span&gt;&lt;/li&gt;&lt;li style=&quot;border-color: var(--border-color);&quot;&gt;&lt;span style=&quot;border-color: var(--border-color); background-color: initial;&quot;&gt;Фреимворки для создания приложений с GUI. Фреймворк Qt.&lt;/span&gt;&lt;/li&gt;&lt;li style=&quot;border-color: var(--border-color);&quot;&gt;&lt;span style=&quot;border-color: var(--border-color); background-color: initial;&quot;&gt;Структура программы. Основные элементы интерфейса пользователя.&lt;/span&gt;&lt;/li&gt;&lt;li style=&quot;border-color: var(--border-color);&quot;&gt;&lt;span style=&quot;border-color: var(--border-color); background-color: initial;&quot;&gt;Многооконные приложения, таблицы. Шаблон проектирования «Модель представление».&lt;/span&gt;&lt;/li&gt;&lt;li style=&quot;border-color: var(--border-color);&quot;&gt;&lt;span style=&quot;border-color: var(--border-color); background-color: initial;&quot;&gt;Средства фреймворка для работы с файлами, потоками http запросами и т.д.&lt;/span&gt;&lt;/li&gt;&lt;li style=&quot;border-color: var(--border-color);&quot;&gt;&lt;span style=&quot;border-color: var(--border-color); background-color: initial;&quot;&gt;Принципы SOLID.&lt;/span&gt;&lt;/li&gt;&lt;li style=&quot;border-color: var(--border-color);&quot;&gt;&lt;span style=&quot;border-color: var(--border-color); background-color: initial;&quot;&gt;Паттерны проектирования: фасад, декоратор, абстрактная фабрика, команда.&lt;/span&gt;&lt;/li&gt;&lt;li style=&quot;border-color: var(--border-color);&quot;&gt;&lt;span style=&quot;border-color: var(--border-color); background-color: initial;&quot;&gt;Модульное тестирование. Развёртывание приложений.&amp;nbsp;&lt;/span&gt;&lt;/li&gt;&lt;/ol&gt;" style="text;strokeColor=default;fillColor=#B8BCD9;spacingLeft=10;spacingRight=0;overflow=hidden;rotatable=0;points=[[0,0.5],[1,0.5]];portConstraint=eastwest;fontSize=14;whiteSpace=wrap;html=1;strokeWidth=2;verticalAlign=middle;spacing=2;fontStyle=1;align=left;horizontal=1;" parent="4ZT7yi2DUqxVnpLDydQl-72" vertex="1">
          <mxGeometry y="190" width="810" height="310" as="geometry" />
        </mxCell>
        <mxCell id="4ZT7yi2DUqxVnpLDydQl-15" value="Программирование" style="swimlane;fontStyle=1;childLayout=stackLayout;horizontal=1;startSize=190;horizontalStack=0;resizeParent=1;resizeParentMax=0;resizeLast=0;collapsible=1;marginBottom=0;align=left;fontSize=18;fillColor=#C5CAE9;strokeWidth=2;rounded=0;verticalAlign=middle;spacingLeft=40;" parent="1" vertex="1" collapsed="1">
          <mxGeometry x="-450" y="77.5" width="260" height="190" as="geometry">
            <mxRectangle x="160" y="140" width="480" height="520" as="alternateBounds" />
          </mxGeometry>
        </mxCell>
        <mxCell id="4ZT7yi2DUqxVnpLDydQl-45" value="&lt;ol style=&quot;border-color: var(--border-color); font-family: Verdana; font-size: 16px;&quot;&gt;&lt;li style=&quot;border-color: var(--border-color);&quot;&gt;&lt;span style=&quot;border-color: var(--border-color); background-color: initial; text-align: justify;&quot;&gt;Место программирования в современных информационных&amp;nbsp;технологиях&lt;/span&gt;&lt;span style=&quot;border-color: var(--border-color);&quot;&gt;&lt;/span&gt;&lt;/li&gt;&lt;li style=&quot;border-color: var(--border-color);&quot;&gt;&lt;span style=&quot;border-color: var(--border-color); background-color: initial; text-align: justify;&quot;&gt;Основные этапы решения задач на ПЭВМ.&amp;nbsp;&lt;/span&gt;&lt;/li&gt;&lt;li style=&quot;border-color: var(--border-color);&quot;&gt;&lt;span style=&quot;border-color: var(--border-color); background-color: initial; text-align: justify;&quot;&gt;Способы записи алгоритмов.&lt;/span&gt;&lt;/li&gt;&lt;li style=&quot;border-color: var(--border-color);&quot;&gt;&lt;span style=&quot;border-color: var(--border-color); background-color: initial; text-align: justify;&quot;&gt;Скалярные типы.&amp;nbsp;&lt;/span&gt;&lt;/li&gt;&lt;li style=&quot;border-color: var(--border-color);&quot;&gt;&lt;span style=&quot;border-color: var(--border-color); background-color: initial; text-align: justify;&quot;&gt;Операторы.&amp;nbsp;&lt;/span&gt;&lt;/li&gt;&lt;li style=&quot;border-color: var(--border-color);&quot;&gt;&lt;span style=&quot;border-color: var(--border-color); background-color: initial; text-align: justify;&quot;&gt;Массивы.&amp;nbsp;&lt;/span&gt;&lt;/li&gt;&lt;li style=&quot;border-color: var(--border-color);&quot;&gt;&lt;span style=&quot;border-color: var(--border-color); background-color: initial; text-align: justify;&quot;&gt;Процедуры и функции.&amp;nbsp;&lt;/span&gt;&lt;/li&gt;&lt;li style=&quot;border-color: var(--border-color);&quot;&gt;&lt;span style=&quot;border-color: var(--border-color); background-color: initial; text-align: justify;&quot;&gt;Записи.&amp;nbsp;&lt;/span&gt;&lt;/li&gt;&lt;li style=&quot;border-color: var(--border-color);&quot;&gt;&lt;span style=&quot;border-color: var(--border-color); background-color: initial; text-align: justify;&quot;&gt;Файловые типы.&lt;/span&gt;&lt;/li&gt;&lt;li style=&quot;border-color: var(--border-color);&quot;&gt;&lt;span style=&quot;border-color: var(--border-color); background-color: initial; text-align: justify;&quot;&gt;Строковые типы.&amp;nbsp;&lt;/span&gt;&lt;/li&gt;&lt;li style=&quot;border-color: var(--border-color);&quot;&gt;&lt;span style=&quot;border-color: var(--border-color); background-color: initial; text-align: justify;&quot;&gt;Множественные типы.&amp;nbsp;&lt;/span&gt;&lt;/li&gt;&lt;li style=&quot;border-color: var(--border-color);&quot;&gt;&lt;span style=&quot;border-color: var(--border-color); background-color: initial; text-align: justify;&quot;&gt;Модули.&amp;nbsp;&lt;/span&gt;&lt;/li&gt;&lt;li style=&quot;border-color: var(--border-color);&quot;&gt;&lt;span style=&quot;border-color: var(--border-color); background-color: initial; text-align: justify;&quot;&gt;Ссылочные типы.&amp;nbsp;&lt;/span&gt;&lt;/li&gt;&lt;li style=&quot;border-color: var(--border-color);&quot;&gt;&lt;span style=&quot;border-color: var(--border-color); background-color: initial; text-align: justify;&quot;&gt;Классы.&lt;/span&gt;&lt;/li&gt;&lt;/ol&gt;" style="text;strokeColor=default;fillColor=#B8BCD9;spacingLeft=10;spacingRight=4;overflow=hidden;rotatable=0;points=[[0,0.5],[1,0.5]];portConstraint=eastwest;fontSize=14;whiteSpace=wrap;html=1;strokeWidth=2;align=left;verticalAlign=middle;labelPosition=center;verticalLabelPosition=middle;spacingBottom=0;labelBackgroundColor=none;flipH=1;flipV=1;fontStyle=1" parent="4ZT7yi2DUqxVnpLDydQl-15" vertex="1">
          <mxGeometry y="190" width="480" height="330" as="geometry" />
        </mxCell>
        <mxCell id="4ZT7yi2DUqxVnpLDydQl-187" value="&lt;font style=&quot;font-size: 40px;&quot;&gt;I&lt;/font&gt;" style="text;html=1;align=center;verticalAlign=middle;resizable=0;points=[];autosize=1;strokeColor=none;fillColor=none;" parent="1" vertex="1">
          <mxGeometry x="-750" y="60" width="30" height="60" as="geometry" />
        </mxCell>
        <mxCell id="4ZT7yi2DUqxVnpLDydQl-188" value="&lt;font style=&quot;font-size: 40px;&quot;&gt;II&lt;/font&gt;" style="text;html=1;align=center;verticalAlign=middle;resizable=0;points=[];autosize=1;strokeColor=none;fillColor=none;" parent="1" vertex="1">
          <mxGeometry x="-750" y="180" width="50" height="60" as="geometry" />
        </mxCell>
        <mxCell id="y7rmreXHusG0yKeAJwIb-1" value="&lt;font style=&quot;font-size: 40px;&quot;&gt;III&lt;/font&gt;" style="text;html=1;align=center;verticalAlign=middle;resizable=0;points=[];autosize=1;strokeColor=none;fillColor=none;" parent="1" vertex="1">
          <mxGeometry x="-750" y="300" width="60" height="60" as="geometry" />
        </mxCell>
        <mxCell id="y7rmreXHusG0yKeAJwIb-2" value="&lt;font style=&quot;font-size: 40px;&quot;&gt;IV&lt;/font&gt;" style="text;html=1;align=center;verticalAlign=middle;resizable=0;points=[];autosize=1;strokeColor=none;fillColor=none;" parent="1" vertex="1">
          <mxGeometry x="-750" y="420" width="60" height="60" as="geometry" />
        </mxCell>
        <mxCell id="y7rmreXHusG0yKeAJwIb-7" value="&lt;font style=&quot;font-size: 40px;&quot;&gt;V&lt;/font&gt;" style="text;html=1;align=center;verticalAlign=middle;resizable=0;points=[];autosize=1;strokeColor=none;fillColor=none;" parent="1" vertex="1">
          <mxGeometry x="-750" y="540" width="50" height="60" as="geometry" />
        </mxCell>
        <mxCell id="y7rmreXHusG0yKeAJwIb-8" value="&lt;font style=&quot;font-size: 40px;&quot;&gt;VI&lt;/font&gt;" style="text;html=1;align=center;verticalAlign=middle;resizable=0;points=[];autosize=1;strokeColor=none;fillColor=none;" parent="1" vertex="1">
          <mxGeometry x="-750" y="660" width="60" height="60" as="geometry" />
        </mxCell>
        <mxCell id="y7rmreXHusG0yKeAJwIb-9" value="&lt;font style=&quot;font-size: 40px;&quot;&gt;VII&lt;/font&gt;" style="text;html=1;align=center;verticalAlign=middle;resizable=0;points=[];autosize=1;strokeColor=none;fillColor=none;" parent="1" vertex="1">
          <mxGeometry x="-750" y="780" width="70" height="60" as="geometry" />
        </mxCell>
        <mxCell id="y7rmreXHusG0yKeAJwIb-10" value="&lt;font style=&quot;font-size: 40px;&quot;&gt;VIII&lt;/font&gt;" style="text;html=1;align=center;verticalAlign=middle;resizable=0;points=[];autosize=1;strokeColor=none;fillColor=none;" parent="1" vertex="1">
          <mxGeometry x="-750" y="900" width="80" height="60" as="geometry" />
        </mxCell>
      </root>
    </mxGraphModel>
  </diagram>
</mxfile>
